<svg xmlns="http://www.w3.org/2000/svg"
     xmlns:xlink="http://www.w3.org/1999/xlink"
     width="100%" height="100%" viewBox="0 0 640 690">

  <title>DOM Level 3 Events: Event Flow</title>
  <desc>Alternate description</desc>
    
  
  <defs id="defs-1">
    <path id="arrowhead" d="M-9,-4 L0,0 -9,4 Z" stroke-linejoin="round" stroke-linecap="round"/>
    <marker id="blackArrow" viewBox="-13 -5 14 10" refX="-4" markerWidth="10" markerHeight="20" orient="auto">
      <use xlink:href="#arrowhead" stroke="black" fill="black"  />
    </marker>
    <marker id="redArrow" viewBox="-13 -5 14 10" refX="-4" markerWidth="10" markerHeight="20" orient="auto">
      <use xlink:href="#arrowhead" stroke="red" fill="red"  />
    </marker>
    <marker id="greenArrow" viewBox="-13 -5 14 10" refX="-4" markerWidth="10" markerHeight="20" orient="auto">
      <use xlink:href="#arrowhead" stroke="green" fill="green"  />
    </marker>

    <filter x="-5%" y="-5%" width="120%" height="120%" id="dropShadow">
      <feGaussianBlur stdDeviation="2 2" in="SourceAlpha"/> 
      <feOffset dx="4" dy="4"/>
      <feComponentTransfer result="shadow">
        <feFuncA type="linear" slope=".55" intercept="0"/>
      </feComponentTransfer>
      <feMerge>
        <feMergeNode/>
        <feMergeNode in="SourceGraphic"/>
      </feMerge>
    </filter>

  </defs>
  

  <g id="nodes" font-family="Verdana, sans-serif" font-size="18" fill="black" text-anchor="middle" stroke="none" stroke-width="2">
    <g id="Window-node" transform="translate(310, 10)">
      <a xlink:href="../DOM3-Events.html#glossary-window" target="_parent">
        <rect x="-70" y="0" width="140" height="40" fill="gainsboro" stroke="black" filter="url(#dropShadow)" />
        <text x="0" y="26">Window</text>
      </a>
    </g>

    <g id="document-node" transform="translate(310, 80)">
      <a xlink:href="../DOM3-Events.html#glossary-document" target="_parent">
        <rect x="-60" y="0" width="120" height="40" fill="gainsboro" stroke="black" filter="url(#dropShadow)" />
        <text x="0" y="26">Document</text>
      </a>
    </g>

    <g id="html-node" transform="translate(310, 150)">
      <rect x="-50" y="0" width="100" height="40" rx="5" ry="5" fill="lightskyblue" stroke="black" filter="url(#dropShadow)" />
      <text x="0" y="26">&lt;html&gt;</text>
    </g>

    <g id="body-node" transform="translate(310, 220)">
      <rect x="-50" y="0" width="100" height="40" rx="5" ry="5" fill="lightskyblue" stroke="black" filter="url(#dropShadow)" />
      <text x="0" y="26">&lt;body&gt;</text>
    </g>

    <g id="table-node" transform="translate(310, 290)">
      <rect x="-50" y="0" width="100" height="40" rx="5" ry="5" fill="lightskyblue" stroke="black" filter="url(#dropShadow)" />
      <text x="0" y="26">&lt;div&gt;</text>
    </g>

    <g id="tbody-node" transform="translate(310, 360)">
      <rect x="-55" y="0" width="110" height="40" rx="5" ry="5" fill="blue" stroke="black" filter="url(#dropShadow)" />
      <text x="0" y="26">&lt;inner div&gt;</text>
    </g>
  </g>
  
  <g id="edges">
    <line id="window-document" x1="310" y1="50" x2="310" y2="73" stroke="black" stroke-width="2" marker-end="url(#blackArrow)"/>     
    <line id="document-html" x1="310" y1="120" x2="310" y2="143" stroke="black" stroke-width="2" marker-end="url(#blackArrow)"/>     
    <line id="html-body" x1="310" y1="190" x2="310" y2="213" stroke="black" stroke-width="2" marker-end="url(#blackArrow)"/>     
    <line id="body-table" x1="310" y1="260" x2="310" y2="283" stroke="black" stroke-width="2" marker-end="url(#blackArrow)"/>     
    <line id="table-tbody" x1="310" y1="330" x2="310" y2="353" stroke="black" stroke-width="2" marker-end="url(#blackArrow)"/>

  </g>
  
  <g id="event-flow" stroke-dasharray="10,5">
    <g id="capture_phase">
      <a xlink:href="../DOM3-Events.html#glossary-capture-phase" target="_parent"><text fill="red" font-family="Verdana, sans-serif" font-size="20" font-weight="bold" text-anchor="middle"><tspan x="150" y="220">Capture</tspan> <tspan x="150" y="240">Phase</tspan> <tspan x="150" y="260">(1)</tspan></text></a>

      <path id="capture_phase_arrow" fill="none" stroke="red" stroke-width="3" marker-end="url(#redArrow)" stroke-linecap="round"
            d="M235,28 C195,25 195,75 238,85 "/>
      <use xlink:href="#capture_phase_arrow" x="5" y="70" />
      <use xlink:href="#capture_phase_arrow" x="10" y="140" />
      <use xlink:href="#capture_phase_arrow" x="10" y="210" />
      <use xlink:href="#capture_phase_arrow" x="10" y="280" stroke-dasharray="none"/>

    </g>
    
    <g id="target_phase">
      <a xlink:href="../DOM3-Events.html#glossary-target-phase" target="_parent"><text fill="blue" font-family="Verdana, sans-serif" font-size="20" font-weight="bold" text-anchor="middle"><tspan x="150" y="360">Target</tspan> <tspan x="150" y="380">Phase</tspan> <tspan x="150" y="400">(2)</tspan></text></a>

    </g>
    
    <g id="bubble_phase">
      <a xlink:href="../DOM3-Events.html#glossary-bubbling-phase" target="_parent"><text fill="green" font-family="Verdana, sans-serif" font-size="20" font-weight="bold" text-anchor="middle"><tspan x="490" y="320">Bubbling</tspan> <tspan x="490" y="340">Phase</tspan> <tspan x="490" y="360">(3)</tspan></text></a>

      <path id="bubble_phase_arrow" fill="none" stroke="green" stroke-width="3" marker-end="url(#greenArrow)" stroke-linecap="round"
            d="M375,375 C415,372 415,332 375,322"/>
      <use xlink:href="#bubble_phase_arrow" x="0" y="-70" />
      <use xlink:href="#bubble_phase_arrow" x="0" y="-140" />
      <path id="bubble_phase_arrow4" fill="none" stroke="green" stroke-width="3" marker-end="url(#greenArrow)" stroke-linecap="round"
            d="M375,165 C425,162 425,122 385,112"/>
      <path id="bubble_phase_arrow" fill="none" stroke="green" stroke-width="3" marker-end="url(#greenArrow)" stroke-linecap="round"
            d="M385,95 C435,92 435,52 395,42"/>
    </g>
  </g>
  
</svg>
