<svg viewBox="0 0 46.59 57" xmlns="http://www.w3.org/2000/svg"><path d="m4.32 50.81a2.46 2.46 0 0 0 0 .43 2.46 2.46 0 0 1 0-.43z" fill="none"/><path d="m46.59 47.4v-45.14a2.18 2.18 0 0 0 -2.18-2.18h-42.23a2.18 2.18 0 0 0 -2.18 2.18v48.74c0 3.25.74 5.89 4 5.89h36.7a5.89 5.89 0 0 0 5.25-3.23h-39.22a2.42 2.42 0 0 1 -2.41-2.88 2.45 2.45 0 0 1 2.41-2h38.9l-.07-.05a1.38 1.38 0 0 0 1.03-1.33z" fill="#3d84a3"/><path d="m39 24.51c-.16.3-.33.58-.48.88a1.13 1.13 0 0 1 -1.16.67.77.77 0 0 0 -.49.16c-.45.3-.9.58-1.37.86a2.39 2.39 0 0 1 -2.08.11 9.73 9.73 0 0 0 -3.48-.62 3.83 3.83 0 0 0 -3.1 1.43 4.69 4.69 0 0 0 -.7 1.4c-.41 1-.76 7-.75 8.52a23.64 23.64 0 0 1 -11.17-6.66l1.41-3.7h-4.41l3.19-3.38h-5.49l3.19-3.38h-5.21l5.81-6.15a13.4 13.4 0 0 1 6.46-3.65 7.26 7.26 0 0 1 4.35.25l.8.24h.09l1.21.36a4.11 4.11 0 0 0 2 0 3.7 3.7 0 0 1 2.7.34 2.69 2.69 0 0 1 1.34 2 2.4 2.4 0 0 0 1.18 1.8 19.37 19.37 0 0 0 3 1.34c.74.28 1.48.58 2.22.88a2.24 2.24 0 0 1 .94.67 1.58 1.58 0 0 1 .36.9c0 .66.12 1.32.16 2a5 5 0 0 1 -.52 2.73z" fill="#fff"/></svg>