<svg viewBox="0 0 960 720" fill="none" stroke-linecap="square" stroke-miterlimit="10" xmlns="http://www.w3.org/2000/svg"><clipPath id="a"><path d="M0 0h960v720H0V0z"/></clipPath><g clip-path="url(#a)"><path fill="none" d="M0 0h960v720H0z"/><path fill="#a4c2f4" d="M7.48 9.352h945.355v704.094H7.48z" fill-rule="evenodd"/><path stroke="#000" stroke-linejoin="round" stroke-linecap="butt" d="M7.48 9.352h945.355v704.094H7.48z"/><path fill="#cfe2f3" d="M39.273 54.775c0-11.362 9.21-20.573 20.573-20.573h391.8a20.573 20.573 0 0 1 20.572 20.573v82.288c0 11.362-9.21 20.572-20.573 20.572h-391.8c-11.361 0-20.572-9.21-20.572-20.572z" fill-rule="evenodd"/><path stroke="#000" stroke-linejoin="round" stroke-linecap="butt" d="M39.273 54.775c0-11.362 9.21-20.573 20.573-20.573h391.8a20.573 20.573 0 0 1 20.572 20.573v82.288c0 11.362-9.21 20.572-20.573 20.572h-391.8c-11.361 0-20.572-9.21-20.572-20.572z"/><path fill="#000" d="M210.08 102.839l5.125-13.36h1.906l5.47 13.36h-2.017l-1.546-4.047h-5.594l-1.469 4.047h-1.875zm3.86-5.485h4.53l-1.406-3.703q-.625-1.687-.937-2.765-.266 1.28-.719 2.546l-1.469 3.922zm9.85 9.188V93.167h1.484v1.25q.53-.735 1.187-1.094.672-.375 1.625-.375 1.235 0 2.172.64.953.626 1.438 1.798.484 1.156.484 2.546 0 1.485-.531 2.672-.532 1.188-1.547 1.828-1.016.625-2.14.625-.813 0-1.47-.343-.656-.344-1.062-.875v4.703h-1.64zm1.484-8.485q0 1.86.75 2.766.765.89 1.828.89 1.094 0 1.875-.921.781-.938.781-2.875 0-1.844-.766-2.766-.75-.922-1.812-.922-1.047 0-1.86.985-.796.968-.796 2.843zm8.891 8.485V93.167h1.484v1.25q.532-.735 1.188-1.094.672-.375 1.625-.375 1.234 0 2.172.64.953.626 1.437 1.798.485 1.156.485 2.546 0 1.485-.532 2.672-.53 1.188-1.546 1.828-1.016.625-2.141.625-.813 0-1.469-.343-.656-.344-1.062-.875v4.703h-1.641zm1.484-8.485q0 1.86.75 2.766.766.89 1.829.89 1.093 0 1.875-.921.78-.938.78-2.875 0-1.844-.765-2.766-.75-.922-1.812-.922-1.047 0-1.86.985-.797.968-.797 2.843zm8.845 4.782v-13.36h1.64v13.36h-1.64zm4.192-11.47v-1.89h1.64v1.89h-1.64zm0 11.47v-9.672h1.64v9.672h-1.64zm10.457-3.547l1.61.219q-.266 1.656-1.36 2.609-1.078.937-2.672.937-1.984 0-3.187-1.296-1.204-1.297-1.204-3.72 0-1.577.516-2.75.516-1.171 1.578-1.75 1.063-.593 2.313-.593 1.578 0 2.578.797 1 .797 1.281 2.266l-1.594.234q-.234-.969-.812-1.453-.578-.5-1.39-.5-1.235 0-2.016.89-.782.891-.782 2.813 0 1.953.75 2.844.75.875 1.953.875.97 0 1.61-.594.656-.594.828-1.828zm9.328 2.36q-.922.765-1.766 1.093-.828.312-1.796.312-1.594 0-2.454-.78-.859-.782-.859-1.985 0-.719.328-1.297.328-.594.844-.938.531-.359 1.187-.546.47-.125 1.454-.25 1.984-.235 2.921-.563.016-.344.016-.422 0-1-.469-1.422-.625-.547-1.875-.547-1.156 0-1.703.407-.547.406-.812 1.422l-1.61-.22q.219-1.015.719-1.64.5-.64 1.453-.984.953-.344 2.188-.344 1.25 0 2.015.297.782.281 1.14.734.376.438.517 1.11.078.422.078 1.515v2.188q0 2.281.109 2.89.11.594.406 1.157H268.8q-.265-.516-.328-1.188zm-.14-3.673q-.891.375-2.672.625-1.016.14-1.438.328-.422.188-.656.532-.219.343-.219.78 0 .657.5 1.095.5.437 1.453.437.938 0 1.672-.406.75-.422 1.094-1.14.265-.563.265-1.641v-.61zm7.781 3.39l.235 1.454q-.688.14-1.235.14-.89 0-1.39-.28-.485-.282-.688-.735-.203-.469-.203-1.937v-5.579h-1.203v-1.265h1.203v-2.39l1.625-.985v3.375h1.656v1.265h-1.656v5.672q0 .688.078.89.094.204.281.329.204.11.579.11.265 0 .718-.063zm1.606-10v-1.89h1.64v1.89h-1.64zm0 11.47v-9.672h1.64v9.672h-1.64zm3.535-4.844q0-2.688 1.484-3.969 1.25-1.078 3.047-1.078 2 0 3.266 1.313 1.265 1.296 1.265 3.609 0 1.86-.562 2.937-.563 1.063-1.64 1.657-1.063.593-2.329.593-2.031 0-3.281-1.296-1.25-1.313-1.25-3.766zm1.687 0q0 1.86.797 2.797.813.922 2.047.922 1.219 0 2.031-.922.813-.938.813-2.844 0-1.797-.813-2.719-.812-.922-2.03-.922-1.235 0-2.048.922-.797.907-.797 2.766zm9.298 4.844v-9.672h1.469v1.375q1.062-1.594 3.078-1.594.875 0 1.61.313.734.312 1.093.828.375.5.516 1.203.093.453.093 1.594v5.953h-1.64v-5.891q0-1-.203-1.484-.188-.5-.672-.797-.485-.297-1.14-.297-1.048 0-1.813.672-.75.656-.75 2.515v5.282h-1.64z"/><path fill="#ffe599" d="M319.8 225.995c0-11.017 8.932-19.948 19.948-19.948h304.2a19.948 19.948 0 0 1 19.947 19.948v79.79c0 11.016-8.93 19.947-19.948 19.947H339.748c-11.016 0-19.947-8.93-19.947-19.948z" fill-rule="evenodd"/><path stroke="#000" stroke-linejoin="round" stroke-linecap="butt" d="M319.8 225.995c0-11.017 8.932-19.948 19.948-19.948h304.2a19.948 19.948 0 0 1 19.947 19.948v79.79c0 11.016-8.93 19.947-19.948 19.947H339.748c-11.016 0-19.947-8.93-19.947-19.948z"/><path fill="#000" d="M336.08 272.81v-13.36h5.047q1.329 0 2.032.125.968.172 1.64.641.672.453 1.078 1.281.407.828.407 1.828 0 1.704-1.094 2.891-1.078 1.172-3.922 1.172h-3.422v5.422h-1.765zm1.766-7h3.453q1.72 0 2.438-.64.719-.642.719-1.798 0-.844-.422-1.437-.422-.594-1.125-.781-.438-.125-1.64-.125h-3.423v4.78zm10.46 7v-9.672h1.468v1.469q.563-1.032 1.031-1.36.485-.328 1.063-.328.828 0 1.687.531l-.562 1.516q-.61-.36-1.203-.36-.547 0-.969.329-.422.328-.61.89-.28.875-.28 1.922v5.063h-1.626zm5.618-4.844q0-2.688 1.485-3.969 1.25-1.078 3.047-1.078 2 0 3.265 1.313 1.266 1.296 1.266 3.609 0 1.86-.563 2.938-.562 1.062-1.64 1.656-1.063.594-2.328.594-2.032 0-3.282-1.297-1.25-1.313-1.25-3.766zm1.688 0q0 1.86.797 2.797.812.922 2.047.922 1.218 0 2.03-.922.813-.938.813-2.844 0-1.797-.812-2.719-.813-.921-2.031-.921-1.235 0-2.047.921-.797.907-.797 2.766zm9.688 4.844v-8.406h-1.453v-1.266h1.453v-1.031q0-.97.172-1.454.234-.64.828-1.03.594-.391 1.672-.391.687 0 1.531.156l-.25 1.437q-.5-.093-.953-.093-.75 0-1.062.328-.313.312-.313 1.187v.89h1.89v1.267h-1.89v8.406H365.3zm4.793-11.469v-1.89h1.64v1.89h-1.64zm0 11.469v-9.672h1.64v9.672h-1.64zm4.098 0v-13.36h1.64v13.36h-1.64zm10.816-3.11l1.688.204q-.406 1.484-1.485 2.312-1.078.813-2.765.813-2.125 0-3.375-1.297-1.235-1.313-1.235-3.672 0-2.453 1.25-3.797 1.266-1.344 3.266-1.344 1.938 0 3.156 1.328 1.235 1.313 1.235 3.703v.438h-7.219q.094 1.594.906 2.453.813.844 2.016.844.906 0 1.547-.469.64-.484 1.015-1.516zm-5.39-2.656h5.406q-.11-1.219-.625-1.828-.781-.953-2.031-.953-1.125 0-1.907.766-.765.75-.843 2.015z"/><path fill="none" d="M255.745 157.635c0 54.126 32.032 108.252 64.063 108.252"/><path stroke="#000" stroke-linejoin="round" stroke-linecap="butt" d="M255.745 157.635c0 54.126 32.032 108.252 64.063 108.252"/><path fill="#b6d7a8" d="M319.8 390.57c0-11.017 8.932-19.948 19.948-19.948h304.2a19.948 19.948 0 0 1 19.947 19.948v79.79c0 11.016-8.93 19.947-19.948 19.947H339.748c-11.016 0-19.947-8.93-19.947-19.948z" fill-rule="evenodd"/><path stroke="#000" stroke-linejoin="round" stroke-linecap="butt" d="M319.8 390.57c0-11.017 8.932-19.948 19.948-19.948h304.2a19.948 19.948 0 0 1 19.947 19.948v79.79c0 11.016-8.93 19.947-19.948 19.947H339.748c-11.016 0-19.947-8.93-19.947-19.948z"/><path fill="#000" d="M339.487 437.385v-11.782h-4.406v-1.578h10.578v1.578h-4.407v11.782h-1.765zm7.094-11.47v-1.89h1.64v1.89h-1.64zm0 11.47v-9.672h1.64v9.672h-1.64zm4.145 0v-9.672h1.468v1.359q.453-.719 1.203-1.14.766-.438 1.72-.438 1.077 0 1.765.453.687.438.969 1.234 1.156-1.687 2.984-1.687 1.453 0 2.219.797.78.797.78 2.453v6.64h-1.64v-6.093q0-.985-.156-1.406-.156-.438-.578-.704-.422-.265-.984-.265-1.016 0-1.688.687-.672.672-.672 2.157v5.625h-1.64v-6.282q0-1.093-.407-1.64-.406-.547-1.312-.547-.688 0-1.281.36-.594.359-.86 1.062-.25.703-.25 2.03v5.017h-1.64zm22.165-3.11l1.688.203q-.406 1.485-1.485 2.313-1.078.812-2.765.812-2.125 0-3.375-1.297-1.235-1.312-1.235-3.671 0-2.454 1.25-3.797 1.266-1.344 3.266-1.344 1.938 0 3.156 1.328 1.235 1.313 1.235 3.703v.438h-7.219q.094 1.593.906 2.453.813.844 2.016.844.906 0 1.547-.47.64-.484 1.015-1.515zm-5.39-2.656h5.406q-.11-1.219-.625-1.828-.781-.953-2.031-.953-1.125 0-1.907.765-.765.75-.843 2.016zm9.094 5.766v-13.36h1.64v13.36h-1.64zm4.192-11.47v-1.89h1.64v1.89h-1.64zm0 11.47v-9.672h1.64v9.672h-1.64zm4.145 0v-9.672h1.468v1.375q1.063-1.594 3.079-1.594.875 0 1.609.312.734.313 1.094.829.375.5.515 1.203.094.453.094 1.593v5.954h-1.64v-5.891q0-1-.204-1.484-.187-.5-.672-.797-.484-.297-1.14-.297-1.047 0-1.813.672-.75.656-.75 2.515v5.282h-1.64zm17-3.11l1.688.203q-.406 1.485-1.484 2.313-1.079.812-2.766.812-2.125 0-3.375-1.297-1.234-1.312-1.234-3.671 0-2.454 1.25-3.797 1.265-1.344 3.265-1.344 1.938 0 3.156 1.328 1.235 1.313 1.235 3.703v.438h-7.219q.094 1.593.906 2.453.813.844 2.016.844.906 0 1.547-.47.64-.484 1.015-1.515zm-5.39-2.656h5.406q-.11-1.219-.625-1.828-.781-.953-2.031-.953-1.125 0-1.906.765-.766.75-.844 2.016z"/><path fill="none" d="M255.745 157.635c0 136.41 32.032 272.82 64.063 272.82"/><path stroke="#000" stroke-linejoin="round" stroke-linecap="butt" d="M255.745 157.635c0 136.41 32.032 272.82 64.063 272.82"/><path fill="#f4cccc" d="M319.8 555.192c0-10.072 8.165-18.237 18.237-18.237h307.621a18.237 18.237 0 0 1 18.237 18.237v72.944c0 10.072-8.165 18.237-18.237 18.237h-307.62c-10.073 0-18.237-8.165-18.237-18.237z" fill-rule="evenodd"/><path stroke="#000" stroke-linejoin="round" stroke-linecap="butt" d="M319.8 555.192c0-10.072 8.165-18.237 18.237-18.237h307.621a18.237 18.237 0 0 1 18.237 18.237v72.944c0 10.072-8.165 18.237-18.237 18.237h-307.62c-10.073 0-18.237-8.165-18.237-18.237z"/><path fill="#000" d="M338.986 598.584v-11.781h-4.407v-1.578h10.578v1.578h-4.406v11.781h-1.765zm7.078 0v-9.672h1.469v1.469q.562-1.031 1.03-1.36.485-.328 1.063-.328.829 0 1.688.532l-.563 1.515q-.609-.36-1.203-.36-.547 0-.968.33-.422.327-.61.89-.281.875-.281 1.922v5.062h-1.625zm12.853-3.11l1.688.204q-.407 1.484-1.485 2.312-1.078.813-2.765.813-2.125 0-3.375-1.297-1.235-1.313-1.235-3.672 0-2.453 1.25-3.797 1.266-1.344 3.266-1.344 1.937 0 3.156 1.329 1.235 1.312 1.235 3.703v.437h-7.22q.095 1.594.907 2.453.813.844 2.016.844.906 0 1.547-.469.64-.484 1.015-1.515zm-5.39-2.656h5.406q-.11-1.218-.625-1.828-.781-.953-2.031-.953-1.125 0-1.907.766-.765.75-.843 2.015zm9.14 5.766v-9.672h1.47v1.375q1.062-1.594 3.078-1.594.875 0 1.61.313.734.312 1.093.828.375.5.516 1.203.093.453.093 1.594v5.953h-1.64v-5.89q0-1-.203-1.485-.188-.5-.672-.797-.485-.297-1.141-.297-1.047 0-1.812.672-.75.656-.75 2.516v5.281h-1.641zm16.642 0v-1.219q-.906 1.438-2.703 1.438-1.156 0-2.125-.64-.969-.641-1.5-1.782-.531-1.14-.531-2.625 0-1.453.484-2.625.485-1.188 1.438-1.813.968-.625 2.172-.625.875 0 1.546.375.688.36 1.11.954v-4.797h1.64v13.36h-1.53zm-5.172-4.828q0 1.86.782 2.781.78.922 1.843.922 1.078 0 1.828-.875.75-.89.75-2.687 0-1.985-.765-2.907-.766-.937-1.89-.937-1.079 0-1.813.89-.735.891-.735 2.813zm8.626 1.937l1.625-.25q.125.97.75 1.5.625.516 1.75.516t1.672-.453q.547-.469.547-1.094 0-.547-.485-.875-.328-.219-1.671-.547-1.813-.468-2.516-.797-.688-.328-1.047-.906-.36-.594-.36-1.312 0-.64.298-1.188.296-.562.812-.922.375-.28 1.031-.468.672-.204 1.422-.204 1.14 0 2 .329.86.328 1.266.89.422.563.578 1.5l-1.61.219q-.109-.75-.64-1.172-.516-.422-1.469-.422-1.14 0-1.625.375-.469.375-.469.875 0 .313.188.578.203.266.64.438.235.094 1.438.422 1.75.453 2.438.75.687.297 1.078.86.39.562.39 1.405 0 .828-.484 1.547-.469.719-1.375 1.125-.906.39-2.047.39-1.875 0-2.875-.78-.984-.782-1.25-2.329z"/><path fill="none" d="M255.745 157.635c0 217.008 32.032 434.016 64.063 434.016"/><path stroke="#000" stroke-linejoin="round" stroke-linecap="butt" d="M255.745 157.635c0 217.008 32.032 434.016 64.063 434.016"/><path fill="#ea9999" d="M424.035 222.412a7.48 7.48 0 0 1 7.48-7.48h52.693a7.48 7.48 0 0 1 7.48 7.48v29.921a7.48 7.48 0 0 1-7.48 7.48h-52.692a7.48 7.48 0 0 1-7.48-7.48z" fill-rule="evenodd"/><path stroke="#000" stroke-linejoin="round" stroke-linecap="butt" d="M424.035 222.412a7.48 7.48 0 0 1 7.48-7.48h52.693a7.48 7.48 0 0 1 7.48 7.48v29.921a7.48 7.48 0 0 1-7.48 7.48h-52.692a7.48 7.48 0 0 1-7.48-7.48z"/><path fill="#000" d="M436.586 244.293v-13.36h1.78v11.782h6.563v1.578h-8.343zm9.641-4.844q0-2.688 1.484-3.969 1.25-1.078 3.047-1.078 2 0 3.266 1.313 1.266 1.296 1.266 3.609 0 1.86-.563 2.937-.562 1.063-1.64 1.657-1.063.593-2.329.593-2.031 0-3.281-1.296-1.25-1.313-1.25-3.766zm1.688 0q0 1.86.796 2.797.813.922 2.047.922 1.219 0 2.032-.922.812-.938.812-2.844 0-1.797-.812-2.719-.813-.922-2.032-.922-1.234 0-2.047.922-.796.907-.796 2.766zm8.985 5.64l1.593.235q.11.75.563 1.078.61.453 1.672.453 1.14 0 1.75-.453.625-.453.843-1.266.125-.5.11-2.109-1.063 1.266-2.672 1.266-2 0-3.094-1.438-1.094-1.437-1.094-3.453 0-1.39.5-2.562.516-1.172 1.454-1.797.953-.64 2.25-.64 1.703 0 2.812 1.374v-1.156h1.516v8.36q0 2.265-.469 3.202-.453.938-1.453 1.485-.985.547-2.453.547-1.719 0-2.797-.782-1.063-.765-1.031-2.343zm1.359-5.812q0 1.906.75 2.781.766.875 1.906.875 1.125 0 1.89-.859.766-.875.766-2.734 0-1.782-.796-2.672-.782-.907-1.891-.907-1.094 0-1.86.891-.765.875-.765 2.625zm8.72.172q0-2.688 1.484-3.969 1.25-1.078 3.047-1.078 2 0 3.265 1.313 1.266 1.296 1.266 3.609 0 1.86-.563 2.937-.562 1.063-1.64 1.657-1.063.593-2.328.593-2.032 0-3.282-1.296-1.25-1.313-1.25-3.766zm1.687 0q0 1.86.797 2.797.812.922 2.047.922 1.218 0 2.031-.922.812-.938.812-2.844 0-1.797-.812-2.719-.813-.922-2.031-.922-1.235 0-2.047.922-.797.907-.797 2.766z"/><path fill="#f9cb9c" d="M510.545 222.412a7.48 7.48 0 0 1 7.48-7.48h125.26a7.48 7.48 0 0 1 7.48 7.48v29.921a7.48 7.48 0 0 1-7.48 7.48h-125.26a7.48 7.48 0 0 1-7.48-7.48z" fill-rule="evenodd"/><path stroke="#000" stroke-linejoin="round" stroke-linecap="butt" d="M510.545 222.412a7.48 7.48 0 0 1 7.48-7.48h125.26a7.48 7.48 0 0 1 7.48 7.48v29.921a7.48 7.48 0 0 1-7.48 7.48h-125.26a7.48 7.48 0 0 1-7.48-7.48z"/><path fill="#000" d="M523.174 244.293v-13.36h4.61q1.546 0 2.374.203 1.14.25 1.953.954 1.063.89 1.578 2.28.532 1.391.532 3.173 0 1.515-.36 2.703-.36 1.172-.922 1.937-.547.766-1.203 1.22-.656.437-1.594.671-.937.219-2.14.219h-4.828zm1.765-1.578h2.86q1.312 0 2.062-.235.75-.25 1.203-.703.625-.625.97-1.687.358-1.063.358-2.579 0-2.093-.687-3.218-.688-1.125-1.672-1.5-.703-.282-2.281-.282h-2.813v10.204zm18.13-1.532l1.687.203q-.406 1.485-1.484 2.313-1.078.812-2.766.812-2.125 0-3.375-1.296-1.234-1.313-1.234-3.672 0-2.453 1.25-3.797 1.265-1.344 3.265-1.344 1.938 0 3.157 1.328 1.234 1.313 1.234 3.703v.438h-7.219q.094 1.594.906 2.453.813.844 2.016.844.906 0 1.547-.469.64-.484 1.016-1.516zm-5.391-2.656h5.406q-.11-1.219-.625-1.828-.781-.953-2.031-.953-1.125 0-1.906.765-.766.75-.844 2.016zm8.485 2.875l1.625-.25q.125.969.75 1.5.625.516 1.75.516t1.672-.453q.547-.47.547-1.094 0-.547-.485-.875-.328-.219-1.671-.547-1.813-.469-2.516-.797-.688-.328-1.047-.906-.36-.594-.36-1.313 0-.64.298-1.187.296-.563.812-.922.375-.281 1.031-.469.672-.203 1.422-.203 1.14 0 2 .328.86.328 1.266.89.422.563.578 1.5l-1.61.22q-.109-.75-.64-1.172-.516-.422-1.469-.422-1.14 0-1.625.375-.469.375-.469.875 0 .312.188.578.203.266.64.437.235.094 1.438.422 1.75.453 2.438.75.687.297 1.078.86.39.562.39 1.406 0 .828-.484 1.547-.469.719-1.375 1.125-.906.39-2.047.39-1.875 0-2.875-.78-.984-.782-1.25-2.329zm16.297-.656l1.61.219q-.266 1.656-1.36 2.609-1.078.937-2.672.937-1.984 0-3.187-1.296-1.204-1.297-1.204-3.72 0-1.577.516-2.75.516-1.171 1.578-1.75 1.063-.593 2.313-.593 1.578 0 2.578.797 1 .797 1.281 2.266l-1.594.234q-.234-.969-.812-1.453-.578-.5-1.39-.5-1.235 0-2.016.89-.782.891-.782 2.813 0 1.953.75 2.844.75.875 1.953.875.97 0 1.61-.594.656-.594.828-1.828zm3 3.547v-9.672h1.469v1.469q.562-1.032 1.03-1.36.485-.328 1.063-.328.829 0 1.688.531l-.563 1.516q-.609-.36-1.203-.36-.547 0-.968.329-.422.328-.61.89-.281.875-.281 1.922v5.063h-1.625zm6.228-11.469v-1.89h1.64v1.89h-1.64zm0 11.469v-9.672h1.64v9.672h-1.64zm4.145 3.703V234.62h1.484v1.25q.532-.735 1.188-1.094.672-.375 1.625-.375 1.234 0 2.172.64.953.626 1.437 1.798.485 1.156.485 2.546 0 1.485-.532 2.672-.53 1.188-1.546 1.828-1.016.625-2.141.625-.813 0-1.469-.343-.656-.344-1.062-.875v4.703h-1.641zm1.484-8.485q0 1.86.75 2.766.766.89 1.829.89 1.093 0 1.875-.921.78-.938.78-2.875 0-1.844-.765-2.766-.75-.922-1.812-.922-1.047 0-1.86.985-.797.968-.797 2.843zm12.47 3.313l.234 1.453q-.687.14-1.234.14-.89 0-1.39-.28-.485-.282-.688-.735-.203-.469-.203-1.937v-5.579h-1.204v-1.265h1.204v-2.39l1.625-.985v3.375h1.656v1.265h-1.656v5.672q0 .688.078.891.093.203.281.328.203.11.578.11.266 0 .719-.063zm1.605-10v-1.89h1.64v1.89h-1.64zm0 11.469v-9.672h1.64v9.672h-1.64zm3.535-4.844q0-2.688 1.485-3.969 1.25-1.078 3.047-1.078 2 0 3.265 1.313 1.266 1.296 1.266 3.609 0 1.86-.563 2.937-.562 1.063-1.64 1.657-1.063.593-2.328.593-2.032 0-3.282-1.296-1.25-1.313-1.25-3.766zm1.688 0q0 1.86.797 2.797.812.922 2.047.922 1.218 0 2.031-.922.812-.938.812-2.844 0-1.797-.812-2.719-.813-.922-2.031-.922-1.235 0-2.047.922-.797.907-.797 2.766zm9.298 4.844v-9.672h1.468v1.375q1.063-1.594 3.078-1.594.875 0 1.61.313.734.312 1.094.828.375.5.515 1.203.094.453.094 1.594v5.953h-1.64v-5.89q0-1-.204-1.485-.187-.5-.672-.797-.484-.297-1.14-.297-1.047 0-1.813.672-.75.656-.75 2.515v5.282h-1.64z"/><path fill="#d9d2e9" d="M424.035 280.85a7.48 7.48 0 0 1 7.48-7.48h52.693a7.48 7.48 0 0 1 7.48 7.48v29.922a7.48 7.48 0 0 1-7.48 7.48h-52.692a7.48 7.48 0 0 1-7.48-7.48z" fill-rule="evenodd"/><path stroke="#000" stroke-linejoin="round" stroke-linecap="butt" d="M424.035 280.85a7.48 7.48 0 0 1 7.48-7.48h52.693a7.48 7.48 0 0 1 7.48 7.48v29.922a7.48 7.48 0 0 1-7.48 7.48h-52.692a7.48 7.48 0 0 1-7.48-7.48z"/><path fill="#000" d="M436.586 302.731v-13.36h1.78v11.782h6.563v1.578h-8.343zm10.25-11.469v-1.89h1.641v1.89h-1.64zm0 11.469v-9.672h1.641v9.672h-1.64zm4.145 0v-9.672h1.469v1.375q1.062-1.594 3.078-1.594.875 0 1.61.313.734.312 1.093.828.375.5.516 1.203.094.453.094 1.594v5.953H457.2v-5.89q0-1-.203-1.485-.188-.5-.672-.797-.484-.297-1.14-.297-1.048 0-1.813.672-.75.656-.75 2.516v5.281h-1.64zm10.376 0v-13.36h1.64v7.626l3.891-3.938h2.11l-3.688 3.594 4.063 6.078h-2.016l-3.203-4.953-1.156 1.125v3.828h-1.641zm8.672-2.89l1.625-.25q.125.968.75 1.5.625.515 1.75.515t1.672-.453q.547-.469.547-1.094 0-.547-.485-.875-.328-.219-1.672-.547-1.812-.468-2.515-.797-.688-.328-1.047-.906-.36-.594-.36-1.312 0-.641.297-1.188.297-.562.813-.922.375-.281 1.031-.468.672-.204 1.422-.204 1.14 0 2 .329.86.328 1.266.89.421.563.578 1.5l-1.61.219q-.11-.75-.64-1.172-.516-.422-1.47-.422-1.14 0-1.624.375-.469.375-.469.875 0 .313.188.578.203.266.64.438.235.094 1.438.422 1.75.453 2.437.75.688.297 1.078.859.391.563.391 1.406 0 .828-.484 1.547-.47.719-1.375 1.125-.907.39-2.047.39-1.875 0-2.875-.78-.985-.782-1.25-2.329z"/><path fill="#dd7e6b" d="M510.545 280.85a7.48 7.48 0 0 1 7.48-7.48h125.26a7.48 7.48 0 0 1 7.48 7.48v29.922a7.48 7.48 0 0 1-7.48 7.48h-125.26a7.48 7.48 0 0 1-7.48-7.48z" fill-rule="evenodd"/><path stroke="#000" stroke-linejoin="round" stroke-linecap="butt" d="M510.545 280.85a7.48 7.48 0 0 1 7.48-7.48h125.26a7.48 7.48 0 0 1 7.48 7.48v29.922a7.48 7.48 0 0 1-7.48 7.48h-125.26a7.48 7.48 0 0 1-7.48-7.48z"/><path fill="#000" d="M523.174 302.731v-13.36h5.047q1.328 0 2.03.126.97.172 1.641.64.672.453 1.079 1.282.406.828.406 1.828 0 1.703-1.094 2.89-1.078 1.172-3.922 1.172h-3.422v5.422h-1.765zm1.765-7h3.453q1.72 0 2.438-.64.719-.641.719-1.797 0-.844-.422-1.438t-1.125-.781q-.438-.125-1.64-.125h-3.423v4.781zm10.475 7v-13.36h1.64v4.798q1.141-1.329 2.891-1.329 1.079 0 1.86.422.797.422 1.14 1.172.344.75.344 2.172v6.125h-1.64v-6.125q0-1.234-.532-1.797-.53-.562-1.515-.562-.72 0-1.36.39-.64.375-.922 1.016-.265.64-.265 1.781v5.297h-1.64zm9.766-4.844q0-2.687 1.485-3.968 1.25-1.079 3.047-1.079 2 0 3.265 1.313 1.266 1.297 1.266 3.61 0 1.859-.563 2.937-.562 1.062-1.64 1.656-1.063.594-2.328.594-2.032 0-3.282-1.297-1.25-1.313-1.25-3.766zm1.688 0q0 1.86.797 2.797.812.922 2.047.922 1.218 0 2.031-.922.812-.937.812-2.844 0-1.796-.812-2.718-.813-.922-2.031-.922-1.235 0-2.047.922-.797.906-.797 2.765zm12.876 3.375l.234 1.453q-.687.141-1.234.141-.89 0-1.39-.281-.485-.281-.688-.735-.204-.468-.204-1.937v-5.578h-1.203v-1.266h1.203v-2.39l1.625-.985v3.375h1.657v1.266h-1.657v5.672q0 .687.079.89.093.203.28.328.204.11.579.11.266 0 .719-.063zm.995-3.375q0-2.687 1.485-3.968 1.25-1.079 3.047-1.079 2 0 3.265 1.313 1.266 1.297 1.266 3.61 0 1.859-.563 2.937-.562 1.062-1.64 1.656-1.063.594-2.328.594-2.032 0-3.282-1.297-1.25-1.313-1.25-3.766zm1.688 0q0 1.86.797 2.797.812.922 2.047.922 1.218 0 2.031-.922.812-.937.812-2.844 0-1.796-.812-2.718-.813-.922-2.031-.922-1.235 0-2.047.922-.797.906-.797 2.765zm8.641 1.953l1.625-.25q.125.97.75 1.5.625.516 1.75.516t1.672-.453q.547-.469.547-1.094 0-.547-.484-.875-.328-.219-1.672-.547-1.813-.468-2.516-.797-.687-.328-1.047-.906-.359-.594-.359-1.312 0-.641.297-1.188.297-.562.812-.922.375-.281 1.032-.468.671-.204 1.421-.204 1.141 0 2 .329.86.328 1.266.89.422.563.578 1.5l-1.61.219q-.109-.75-.64-1.172-.515-.422-1.469-.422-1.14 0-1.625.375-.468.375-.468.875 0 .313.187.578.203.266.64.438.235.094 1.438.422 1.75.453 2.438.75.687.297 1.078.859.39.563.39 1.406 0 .828-.484 1.547-.469.719-1.375 1.125-.906.39-2.047.39-1.875 0-2.875-.78-.984-.782-1.25-2.329z"/><path fill="#ead1dc" d="M424.035 383.072a7.48 7.48 0 0 1 7.48-7.48h52.693a7.48 7.48 0 0 1 7.48 7.48v29.921a7.48 7.48 0 0 1-7.48 7.48h-52.692a7.48 7.48 0 0 1-7.48-7.48z" fill-rule="evenodd"/><path stroke="#000" stroke-linejoin="round" stroke-linecap="butt" d="M424.035 383.072a7.48 7.48 0 0 1 7.48-7.48h52.693a7.48 7.48 0 0 1 7.48 7.48v29.921a7.48 7.48 0 0 1-7.48 7.48h-52.692a7.48 7.48 0 0 1-7.48-7.48z"/><path fill="#000" d="M436.664 404.953v-13.36h5.047q1.328 0 2.03.125.97.172 1.642.641.671.453 1.078 1.281.406.828.406 1.828 0 1.704-1.094 2.891-1.078 1.172-3.922 1.172h-3.422v5.422h-1.765zm1.765-7h3.454q1.718 0 2.437-.64.719-.641.719-1.798 0-.843-.422-1.437-.422-.594-1.125-.781-.438-.125-1.64-.125h-3.423v4.78zm9.866 2.156q0-2.687 1.484-3.969 1.25-1.078 3.047-1.078 2 0 3.266 1.313 1.265 1.297 1.265 3.61 0 1.858-.562 2.937-.563 1.062-1.64 1.656-1.063.594-2.329.594-2.031 0-3.281-1.297-1.25-1.313-1.25-3.766zm1.687 0q0 1.86.797 2.797.813.922 2.047.922 1.219 0 2.031-.922.813-.938.813-2.844 0-1.797-.813-2.719-.812-.921-2.03-.921-1.235 0-2.048.921-.797.907-.797 2.766zm8.642 1.953l1.625-.25q.125.969.75 1.5.625.516 1.75.516t1.672-.453q.546-.47.546-1.094 0-.547-.484-.875-.328-.219-1.672-.547-1.812-.469-2.515-.797-.688-.328-1.047-.906-.36-.594-.36-1.313 0-.64.297-1.187.297-.563.813-.922.375-.281 1.031-.469.672-.203 1.422-.203 1.14 0 2 .328.86.328 1.265.89.422.563.579 1.5l-1.61.22q-.11-.75-.64-1.172-.516-.422-1.47-.422-1.14 0-1.624.375-.469.375-.469.875 0 .312.188.578.203.266.64.438.235.093 1.438.421 1.75.454 2.437.75.688.297 1.078.86.391.562.391 1.406 0 .828-.484 1.547-.47.719-1.375 1.125-.907.39-2.047.39-1.875 0-2.875-.78-.985-.782-1.25-2.329zm13.562 1.422l.235 1.453q-.688.14-1.235.14-.89 0-1.39-.28-.485-.282-.688-.735-.203-.469-.203-1.937v-5.578h-1.203v-1.266h1.203v-2.39l1.625-.985v3.375h1.656v1.266h-1.656v5.671q0 .688.078.891.094.203.281.328.203.11.578.11.266 0 .72-.063z"/><path fill="#efefef" d="M510.545 383.072a7.48 7.48 0 0 1 7.48-7.48h125.26a7.48 7.48 0 0 1 7.48 7.48v29.921a7.48 7.48 0 0 1-7.48 7.48h-125.26a7.48 7.48 0 0 1-7.48-7.48z" fill-rule="evenodd"/><path stroke="#000" stroke-linejoin="round" stroke-linecap="butt" d="M510.545 383.072a7.48 7.48 0 0 1 7.48-7.48h125.26a7.48 7.48 0 0 1 7.48 7.48v29.921a7.48 7.48 0 0 1-7.48 7.48h-125.26a7.48 7.48 0 0 1-7.48-7.48z"/><path fill="#000" d="M523.174 404.953v-13.36h4.61q1.546 0 2.374.204 1.14.25 1.953.953 1.063.89 1.578 2.28.532 1.392.532 3.173 0 1.515-.36 2.703-.36 1.172-.922 1.937-.547.766-1.203 1.22-.656.437-1.594.671-.937.219-2.14.219h-4.828zm1.765-1.578h2.86q1.312 0 2.062-.235.75-.25 1.203-.703.625-.625.97-1.687.358-1.063.358-2.578 0-2.094-.687-3.22-.688-1.124-1.672-1.5-.703-.28-2.281-.28h-2.813v10.203zm18.13-1.532l1.687.204q-.406 1.484-1.484 2.312-1.078.813-2.766.813-2.125 0-3.375-1.297-1.234-1.313-1.234-3.672 0-2.453 1.25-3.797 1.265-1.344 3.265-1.344 1.938 0 3.157 1.328 1.234 1.313 1.234 3.703v.438h-7.219q.094 1.594.906 2.453.813.844 2.016.844.906 0 1.547-.469.64-.484 1.016-1.516zm-5.391-2.656h5.406q-.11-1.219-.625-1.828-.781-.953-2.031-.953-1.125 0-1.906.766-.766.75-.844 2.015zm8.485 2.875l1.625-.25q.125.969.75 1.5.625.516 1.75.516t1.672-.453q.547-.47.547-1.094 0-.547-.485-.875-.328-.219-1.671-.547-1.813-.469-2.516-.797-.688-.328-1.047-.906-.36-.594-.36-1.313 0-.64.298-1.187.296-.563.812-.922.375-.281 1.031-.469.672-.203 1.422-.203 1.14 0 2 .328.86.328 1.266.89.422.563.578 1.5l-1.61.22q-.109-.75-.64-1.172-.516-.422-1.469-.422-1.14 0-1.625.375-.469.375-.469.875 0 .312.188.578.203.266.64.438.235.093 1.438.421 1.75.454 2.438.75.687.297 1.078.86.39.562.39 1.406 0 .828-.484 1.547-.469.719-1.375 1.125-.906.39-2.047.39-1.875 0-2.875-.78-.984-.782-1.25-2.329zm16.297-.656l1.61.219q-.266 1.656-1.36 2.61-1.078.937-2.672.937-1.984 0-3.187-1.297-1.204-1.297-1.204-3.72 0-1.577.516-2.75.516-1.17 1.578-1.75 1.063-.593 2.313-.593 1.578 0 2.578.797 1 .797 1.281 2.266l-1.594.234q-.234-.969-.812-1.453-.578-.5-1.39-.5-1.235 0-2.016.89-.782.891-.782 2.813 0 1.953.75 2.844.75.875 1.953.875.97 0 1.61-.594.656-.594.828-1.828zm3 3.547v-9.672h1.469v1.469q.562-1.032 1.03-1.36.485-.328 1.063-.328.829 0 1.688.531l-.563 1.516q-.609-.36-1.203-.36-.547 0-.968.329-.422.328-.61.89-.281.875-.281 1.922v5.063h-1.625zm6.228-11.469v-1.89h1.64v1.89h-1.64zm0 11.469v-9.672h1.64v9.672h-1.64zm4.145 3.703V395.28h1.484v1.25q.532-.734 1.188-1.094.672-.375 1.625-.375 1.234 0 2.172.64.953.626 1.437 1.798.485 1.156.485 2.547 0 1.484-.532 2.671-.53 1.188-1.546 1.829-1.016.625-2.141.625-.813 0-1.469-.344-.656-.344-1.062-.875v4.703h-1.641zm1.484-8.484q0 1.859.75 2.765.766.89 1.829.89 1.093 0 1.875-.921.78-.938.78-2.875 0-1.844-.765-2.766-.75-.922-1.812-.922-1.047 0-1.86.985-.797.969-.797 2.844zm12.47 3.312l.234 1.453q-.687.14-1.234.14-.89 0-1.39-.28-.485-.282-.688-.735-.203-.469-.203-1.937v-5.578h-1.204v-1.266h1.204v-2.39l1.625-.985v3.375h1.656v1.266h-1.656v5.671q0 .688.078.891.093.203.281.328.203.11.578.11.266 0 .719-.063zm1.605-10v-1.89h1.64v1.89h-1.64zm0 11.469v-9.672h1.64v9.672h-1.64zm3.535-4.844q0-2.687 1.485-3.969 1.25-1.078 3.047-1.078 2 0 3.265 1.313 1.266 1.297 1.266 3.61 0 1.858-.563 2.937-.562 1.062-1.64 1.656-1.063.594-2.328.594-2.032 0-3.282-1.297-1.25-1.313-1.25-3.766zm1.688 0q0 1.86.797 2.797.812.922 2.047.922 1.218 0 2.031-.922.812-.938.812-2.844 0-1.797-.812-2.719-.813-.921-2.031-.921-1.235 0-2.047.921-.797.907-.797 2.766zm9.298 4.844v-9.672h1.468v1.375q1.063-1.594 3.078-1.594.875 0 1.61.313.734.312 1.094.828.375.5.515 1.203.094.453.094 1.594v5.953h-1.64v-5.89q0-1-.204-1.485-.187-.5-.672-.797-.484-.297-1.14-.297-1.047 0-1.813.672-.75.656-.75 2.516v5.28h-1.64z"/><path fill="#c9daf8" d="M510.545 441.51a7.48 7.48 0 0 1 7.48-7.48h125.26a7.48 7.48 0 0 1 7.48 7.48v29.922a7.48 7.48 0 0 1-7.48 7.48h-125.26a7.48 7.48 0 0 1-7.48-7.48z" fill-rule="evenodd"/><path stroke="#000" stroke-linejoin="round" stroke-linecap="butt" d="M510.545 441.51a7.48 7.48 0 0 1 7.48-7.48h125.26a7.48 7.48 0 0 1 7.48 7.48v29.922a7.48 7.48 0 0 1-7.48 7.48h-125.26a7.48 7.48 0 0 1-7.48-7.48z"/><path fill="#000" d="M532.705 458.704l1.766.453q-.563 2.172-2 3.328-1.438 1.14-3.532 1.14-2.156 0-3.515-.875-1.344-.89-2.063-2.546-.703-1.672-.703-3.594 0-2.078.797-3.625.797-1.563 2.266-2.36 1.484-.812 3.25-.812 2 0 3.359 1.016 1.375 1.015 1.906 2.875l-1.734.406q-.469-1.453-1.36-2.11-.875-.671-2.203-.671-1.547 0-2.578.734t-1.453 1.984q-.422 1.235-.422 2.563 0 1.703.5 2.969.5 1.265 1.547 1.906 1.047.625 2.266.625 1.484 0 2.515-.86 1.032-.859 1.391-2.546zm3.13-.157q0-2.687 1.484-3.968 1.25-1.079 3.046-1.079 2 0 3.266 1.313 1.266 1.297 1.266 3.61 0 1.859-.563 2.937-.562 1.062-1.64 1.656-1.063.594-2.329.594-2.03 0-3.28-1.297-1.25-1.313-1.25-3.766zm1.687 0q0 1.86.797 2.797.812.922 2.046.922 1.22 0 2.032-.922.812-.937.812-2.844 0-1.796-.812-2.718-.813-.922-2.032-.922-1.234 0-2.046.922-.797.906-.797 2.765zm9.297 4.844v-9.672h1.469v1.36q.453-.72 1.203-1.141.766-.438 1.719-.438 1.078 0 1.766.454.687.437.968 1.234 1.157-1.688 2.985-1.688 1.453 0 2.218.797.782.797.782 2.453v6.641h-1.641v-6.094q0-.984-.156-1.406-.156-.437-.578-.703-.422-.266-.985-.266-1.015 0-1.687.688-.672.672-.672 2.156v5.625h-1.64v-6.281q0-1.094-.407-1.64-.406-.548-1.312-.548-.688 0-1.282.36-.593.36-.86 1.062-.25.703-.25 2.031v5.016h-1.64zm15.541 0v-9.672h1.469v1.36q.453-.72 1.203-1.141.766-.438 1.719-.438 1.078 0 1.765.454.688.437.969 1.234 1.156-1.688 2.984-1.688 1.454 0 2.22.797.78.797.78 2.453v6.641h-1.64v-6.094q0-.984-.156-1.406-.157-.437-.579-.703-.421-.266-.984-.266-1.016 0-1.687.688-.672.672-.672 2.156v5.625h-1.641v-6.281q0-1.094-.406-1.64-.406-.548-1.313-.548-.687 0-1.281.36-.594.36-.86 1.062-.25.703-.25 2.031v5.016h-1.64zm22.166-3.11l1.687.204q-.406 1.484-1.484 2.312-1.078.813-2.766.813-2.125 0-3.375-1.297-1.234-1.313-1.234-3.672 0-2.453 1.25-3.797 1.266-1.344 3.266-1.344 1.937 0 3.156 1.329 1.234 1.312 1.234 3.703v.437h-7.218q.093 1.594.906 2.453.812.844 2.015.844.907 0 1.547-.469.64-.484 1.016-1.515zm-5.39-2.656h5.406q-.11-1.218-.625-1.828-.782-.953-2.032-.953-1.125 0-1.906.766-.766.75-.844 2.015zm9.14 5.766v-9.672h1.47v1.375q1.062-1.594 3.077-1.594.875 0 1.61.313.734.312 1.094.828.375.5.515 1.203.094.453.094 1.594v5.953h-1.64v-5.89q0-1-.204-1.485-.187-.5-.672-.797-.484-.297-1.14-.297-1.047 0-1.813.672-.75.656-.75 2.516v5.281h-1.64zm13.954-1.469l.235 1.453q-.688.141-1.235.141-.89 0-1.39-.281-.485-.281-.688-.735-.203-.468-.203-1.937v-5.578h-1.203v-1.266h1.203v-2.39l1.625-.985v3.375h1.656v1.266h-1.656v5.672q0 .687.078.89.094.203.282.328.203.11.578.11.265 0 .718-.063zm.95-1.422l1.624-.25q.125.97.75 1.5.625.516 1.75.516t1.672-.453q.547-.469.547-1.094 0-.547-.484-.875-.328-.219-1.672-.547-1.813-.468-2.516-.797-.687-.328-1.047-.906-.36-.594-.36-1.312 0-.64.298-1.188.297-.562.812-.922.375-.28 1.032-.468.671-.204 1.421-.204 1.141 0 2 .329.86.328 1.266.89.422.563.578 1.5l-1.61.219q-.109-.75-.64-1.172-.515-.422-1.469-.422-1.14 0-1.625.375-.468.375-.468.875 0 .313.187.578.203.266.64.438.235.094 1.438.422 1.75.453 2.438.75.687.297 1.078.86.39.562.39 1.405 0 .828-.484 1.547-.469.719-1.375 1.125-.906.39-2.047.39-1.875 0-2.875-.78-.984-.782-1.25-2.329z"/><path fill="#d9d2e9" d="M424.035 441.512a7.48 7.48 0 0 1 7.48-7.48h52.693a7.48 7.48 0 0 1 7.48 7.48v29.92a7.48 7.48 0 0 1-7.48 7.481h-52.692a7.48 7.48 0 0 1-7.48-7.48z" fill-rule="evenodd"/><path stroke="#000" stroke-linejoin="round" stroke-linecap="butt" d="M424.035 441.512a7.48 7.48 0 0 1 7.48-7.48h52.693a7.48 7.48 0 0 1 7.48 7.48v29.92a7.48 7.48 0 0 1-7.48 7.481h-52.692a7.48 7.48 0 0 1-7.48-7.48z"/><path fill="#000" d="M436.758 463.392v-13.359h9.015v1.578h-7.25v4.14h6.266v1.579h-6.266v6.062h-1.765zm17.411-1.187q-.922.766-1.765 1.094-.829.312-1.797.312-1.594 0-2.453-.781-.86-.781-.86-1.984 0-.72.328-1.297.328-.594.844-.938.531-.36 1.188-.547.468-.125 1.453-.25 1.984-.234 2.922-.562.015-.344.015-.422 0-1-.469-1.422-.625-.547-1.875-.547-1.156 0-1.703.406-.547.407-.812 1.422l-1.61-.218q.22-1.016.72-1.641.5-.64 1.452-.984.953-.344 2.188-.344 1.25 0 2.015.297.782.28 1.141.734.375.438.516 1.11.078.421.078 1.515v2.188q0 2.28.11 2.89.109.594.405 1.156h-1.703q-.265-.515-.328-1.187zm-.14-3.672q-.891.375-2.672.625-1.016.14-1.438.328-.422.188-.656.531-.219.344-.219.782 0 .656.5 1.093.5.438 1.453.438.938 0 1.672-.406.75-.422 1.094-1.14.266-.563.266-1.642v-.609zm6.89 4.86l-3.687-9.672h1.735l2.078 5.796q.328.938.625 1.938.203-.766.61-1.828l2.14-5.906h1.687l-3.656 9.671h-1.531zm5.985-2.891l1.625-.25q.125.969.75 1.5.625.515 1.75.515t1.672-.453q.547-.468.547-1.093 0-.547-.484-.875-.329-.22-1.672-.547-1.813-.47-2.516-.797-.687-.328-1.047-.906-.36-.594-.36-1.313 0-.64.298-1.187.297-.563.812-.922.375-.282 1.031-.47.672-.202 1.422-.202 1.141 0 2 .328.86.328 1.266.89.422.563.578 1.5l-1.61.22q-.109-.75-.64-1.173-.516-.421-1.469-.421-1.14 0-1.625.375-.468.375-.468.875 0 .312.187.578.203.265.64.437.235.094 1.438.422 1.75.453 2.438.75.687.297 1.078.86.39.562.39 1.406 0 .828-.484 1.547-.469.718-1.375 1.125-.906.39-2.047.39-1.875 0-2.875-.781-.984-.781-1.25-2.328z"/><path fill="#efefef" d="M531.239 578.693a7.48 7.48 0 0 1 7.48-7.48h104.567a7.48 7.48 0 0 1 7.48 7.48v29.921a7.48 7.48 0 0 1-7.48 7.48H538.719a7.48 7.48 0 0 1-7.48-7.48z" fill-rule="evenodd"/><path stroke="#000" stroke-linejoin="round" stroke-linecap="butt" d="M531.239 578.693a7.48 7.48 0 0 1 7.48-7.48h104.567a7.48 7.48 0 0 1 7.48 7.48v29.921a7.48 7.48 0 0 1-7.48 7.48H538.719a7.48 7.48 0 0 1-7.48-7.48z"/><path fill="#000" d="M543.867 600.574v-13.36h4.61q1.546 0 2.375.203 1.14.25 1.953.953 1.062.891 1.578 2.282.531 1.39.531 3.172 0 1.515-.36 2.703-.359 1.172-.921 1.937-.547.766-1.203 1.219-.657.437-1.594.672-.938.219-2.14.219h-4.829zm1.766-1.579h2.86q1.312 0 2.062-.234.75-.25 1.203-.703.625-.625.969-1.688.359-1.062.359-2.578 0-2.093-.688-3.218-.687-1.125-1.671-1.5-.704-.282-2.282-.282h-2.812v10.203zm18.129-1.53l1.688.202q-.407 1.485-1.485 2.313-1.078.812-2.765.812-2.125 0-3.375-1.297-1.235-1.312-1.235-3.671 0-2.454 1.25-3.797 1.266-1.344 3.266-1.344 1.937 0 3.156 1.328 1.234 1.313 1.234 3.703v.438h-7.218q.093 1.593.906 2.453.812.844 2.016.844.906 0 1.546-.47.641-.484 1.016-1.515zm-5.39-2.657h5.406q-.11-1.219-.625-1.828-.782-.953-2.032-.953-1.125 0-1.906.765-.765.75-.844 2.016zm8.485 2.875l1.625-.25q.125.969.75 1.5.625.516 1.75.516t1.671-.454q.547-.468.547-1.093 0-.547-.484-.875-.328-.22-1.672-.547-1.812-.469-2.516-.797-.687-.328-1.046-.906-.36-.594-.36-1.313 0-.64.297-1.187.297-.563.813-.922.375-.281 1.03-.469.673-.203 1.423-.203 1.14 0 2 .328.859.328 1.265.89.422.563.578 1.5l-1.609.22q-.11-.75-.64-1.172-.516-.422-1.47-.422-1.14 0-1.624.375-.47.375-.47.875 0 .312.188.578.204.265.641.437.234.094 1.438.422 1.75.453 2.437.75.688.297 1.078.86.39.562.39 1.406 0 .828-.484 1.547-.468.718-1.375 1.125-.906.39-2.046.39-1.875 0-2.875-.781-.985-.781-1.25-2.328zm16.296-.656l1.61.218q-.266 1.657-1.36 2.61-1.078.937-2.671.937-1.985 0-3.188-1.297-1.203-1.296-1.203-3.718 0-1.578.516-2.75.515-1.172 1.578-1.75 1.062-.594 2.312-.594 1.578 0 2.578.797 1 .797 1.282 2.265l-1.594.235q-.235-.969-.813-1.453-.578-.5-1.39-.5-1.235 0-2.016.89-.781.89-.781 2.813 0 1.953.75 2.844.75.875 1.953.875.969 0 1.61-.594.656-.594.827-1.828zm3 3.547v-9.672h1.47v1.468q.562-1.03 1.03-1.359.485-.328 1.063-.328.828 0 1.687.531l-.562 1.516q-.61-.36-1.203-.36-.547 0-.969.329-.422.328-.61.89-.28.875-.28 1.922v5.063h-1.626zm6.229-11.47v-1.89h1.64v1.89h-1.64zm0 11.47v-9.672h1.64v9.672h-1.64zm4.145 3.703v-13.375h1.484v1.25q.531-.735 1.187-1.094.672-.375 1.625-.375 1.235 0 2.172.64.953.626 1.438 1.797.484 1.157.484 2.547 0 1.485-.531 2.672-.531 1.188-1.547 1.828-1.016.625-2.14.625-.813 0-1.47-.343-.656-.344-1.062-.875v4.703h-1.64zm1.484-8.485q0 1.86.75 2.766.766.89 1.828.89 1.094 0 1.875-.921.781-.938.781-2.875 0-1.844-.765-2.766-.75-.922-1.813-.922-1.047 0-1.86.985-.796.968-.796 2.843zm12.47 3.313l.234 1.453q-.688.14-1.235.14-.89 0-1.39-.28-.485-.282-.688-.735-.203-.469-.203-1.938v-5.578h-1.203v-1.265h1.203v-2.391l1.625-.984v3.375h1.656v1.265h-1.656v5.672q0 .688.078.89.094.204.281.329.204.11.579.11.265 0 .718-.063zm1.605-10v-1.89h1.64v1.89h-1.64zm0 11.469v-9.672h1.64v9.672h-1.64zm3.535-4.844q0-2.688 1.484-3.969 1.25-1.078 3.047-1.078 2 0 3.266 1.312 1.265 1.297 1.265 3.61 0 1.86-.562 2.937-.563 1.063-1.64 1.657-1.063.593-2.329.593-2.031 0-3.281-1.297-1.25-1.312-1.25-3.765zm1.687 0q0 1.86.797 2.797.813.922 2.047.922 1.219 0 2.031-.922.813-.938.813-2.844 0-1.797-.813-2.719-.812-.922-2.03-.922-1.235 0-2.048.922-.797.906-.797 2.766zm9.298 4.844v-9.672h1.469v1.375q1.062-1.594 3.078-1.594.875 0 1.61.312.734.313 1.093.829.375.5.516 1.203.093.453.093 1.593v5.954h-1.64v-5.891q0-1-.203-1.484-.188-.5-.672-.797-.485-.297-1.14-.297-1.048 0-1.813.672-.75.656-.75 2.515v5.282h-1.641z"/><path fill="#c9daf8" d="M412.89 578.693a7.48 7.48 0 0 1 7.48-7.48h91.527a7.48 7.48 0 0 1 7.48 7.48v29.921a7.48 7.48 0 0 1-7.48 7.48H420.37a7.48 7.48 0 0 1-7.48-7.48z" fill-rule="evenodd"/><path stroke="#000" stroke-linejoin="round" stroke-linecap="butt" d="M412.89 578.693a7.48 7.48 0 0 1 7.48-7.48h91.527a7.48 7.48 0 0 1 7.48 7.48v29.921a7.48 7.48 0 0 1-7.48 7.48H420.37a7.48 7.48 0 0 1-7.48-7.48z"/><path fill="#000" d="M425.58 600.574v-13.36h1.766v5.485h6.938v-5.485h1.765v13.36h-1.765v-6.297h-6.938v6.297h-1.765zm19.52-1.188q-.921.766-1.765 1.094-.828.312-1.797.312-1.594 0-2.453-.781-.86-.781-.86-1.984 0-.72.329-1.297.328-.594.843-.938.532-.36 1.188-.547.469-.125 1.453-.25 1.984-.234 2.922-.562.015-.344.015-.422 0-1-.468-1.422-.625-.547-1.875-.547-1.157 0-1.703.407-.547.406-.813 1.421l-1.61-.218q.22-1.016.72-1.641.5-.64 1.453-.984.953-.344 2.187-.344 1.25 0 2.016.297.78.281 1.14.734.375.438.516 1.11.078.421.078 1.515v2.188q0 2.28.11 2.89.109.594.406 1.157h-1.703q-.266-.516-.329-1.188zm-.14-3.672q-.89.375-2.672.625-1.016.14-1.438.328-.421.188-.656.532-.219.343-.219.78 0 .657.5 1.095.5.437 1.454.437.937 0 1.671-.406.75-.422 1.094-1.14.266-.563.266-1.641v-.61zm3.547 1.969l1.625-.25q.125.969.75 1.5.625.516 1.75.516t1.672-.454q.547-.468.547-1.093 0-.547-.484-.875-.328-.22-1.672-.547-1.813-.469-2.516-.797-.687-.328-1.047-.906-.359-.594-.359-1.313 0-.64.297-1.187.297-.563.812-.922.375-.281 1.032-.469.671-.203 1.421-.203 1.141 0 2 .328.86.328 1.266.89.422.563.578 1.5l-1.61.22q-.109-.75-.64-1.172-.515-.422-1.469-.422-1.14 0-1.625.375-.468.375-.468.875 0 .312.187.578.203.265.64.437.235.094 1.438.422 1.75.453 2.438.75.687.297 1.078.86.39.562.39 1.406 0 .828-.484 1.547-.469.718-1.375 1.125-.906.39-2.047.39-1.875 0-2.875-.781-.984-.781-1.25-2.328zm9.985 2.89v-13.359h1.64v4.797q1.141-1.328 2.891-1.328 1.078 0 1.86.422.796.422 1.14 1.172.344.75.344 2.172v6.125h-1.64v-6.125q0-1.235-.532-1.797-.531-.563-1.516-.563-.719 0-1.36.39-.64.376-.921 1.016-.266.641-.266 1.782v5.297h-1.64zm13.954-1.468l.234 1.453q-.688.14-1.234.14-.891 0-1.391-.28-.484-.282-.688-.735-.203-.469-.203-1.938v-5.578h-1.203v-1.265h1.203v-2.391l1.625-.984v3.375h1.657v1.265h-1.657v5.672q0 .688.078.89.094.204.282.329.203.11.578.11.265 0 .719-.063zm7.917.281q-.922.766-1.765 1.094-.828.312-1.797.312-1.594 0-2.453-.781-.86-.781-.86-1.984 0-.72.328-1.297.329-.594.844-.938.531-.36 1.188-.547.468-.125 1.453-.25 1.984-.234 2.922-.562.015-.344.015-.422 0-1-.468-1.422-.625-.547-1.875-.547-1.157 0-1.704.407-.546.406-.812 1.421l-1.61-.218q.22-1.016.72-1.641.5-.64 1.452-.984.954-.344 2.188-.344 1.25 0 2.016.297.78.281 1.14.734.375.438.516 1.11.078.421.078 1.515v2.188q0 2.28.11 2.89.109.594.406 1.157h-1.704q-.265-.516-.328-1.188zm-.14-3.672q-.891.375-2.672.625-1.016.14-1.438.328-.422.188-.656.532-.219.343-.219.78 0 .657.5 1.095.5.437 1.453.437.938 0 1.672-.406.75-.422 1.094-1.14.266-.563.266-1.641v-.61zm3.891 5.656l1.594.235q.11.75.562 1.078.61.453 1.672.453 1.14 0 1.75-.453.625-.453.844-1.266.125-.5.11-2.11-1.063 1.267-2.673 1.267-2 0-3.093-1.438-1.094-1.437-1.094-3.453 0-1.39.5-2.563.515-1.171 1.453-1.796.953-.641 2.25-.641 1.703 0 2.812 1.375v-1.156h1.516v8.359q0 2.266-.469 3.203-.453.938-1.453 1.485-.984.546-2.453.546-1.719 0-2.797-.78-1.062-.766-1.031-2.345zm1.36-5.812q0 1.906.75 2.781.765.875 1.906.875 1.125 0 1.89-.86.766-.874.766-2.734 0-1.78-.797-2.671-.781-.907-1.89-.907-1.094 0-1.86.89-.766.876-.766 2.626z"/><path fill="#ff0" d="M518.546 36.076h327.275v119.685h-190.91l-40.909 14.96-40.91-14.96h-54.546v-49.869z" fill-rule="evenodd"/><path stroke="#000" stroke-linejoin="round" stroke-linecap="butt" d="M518.546 36.076h327.275v119.685h-190.91l-40.909 14.96-40.91-14.96h-54.546v-49.869z"/><path fill="#000" d="M537.75 89.48h1.765v7.718q0 2.016-.453 3.203-.454 1.188-1.641 1.938-1.188.734-3.125.734-1.875 0-3.078-.64-1.188-.657-1.703-1.876-.5-1.234-.5-3.359v-7.719h1.765v7.719q0 1.734.313 2.563.328.812 1.11 1.265.796.453 1.937.453 1.953 0 2.781-.89.828-.891.828-3.391v-7.719zm3.847 10.468l1.625-.25q.125.969.75 1.5.625.516 1.75.516t1.672-.453q.547-.47.547-1.094 0-.547-.485-.875-.328-.219-1.671-.547-1.813-.469-2.516-.797-.688-.328-1.047-.906-.36-.594-.36-1.313 0-.64.298-1.187.296-.563.812-.922.375-.281 1.031-.469.672-.203 1.422-.203 1.14 0 2 .328.86.328 1.266.89.422.563.578 1.5l-1.61.22q-.109-.75-.64-1.172-.516-.422-1.469-.422-1.14 0-1.625.375-.469.375-.469.875 0 .312.188.578.203.266.64.437.235.094 1.438.422 1.75.453 2.438.75.687.297 1.078.86.39.562.39 1.406 0 .828-.484 1.547-.469.719-1.375 1.125-.906.39-2.047.39-1.875 0-2.875-.78-.984-.782-1.25-2.329zm16.61-.219l1.687.203q-.406 1.485-1.484 2.313-1.079.812-2.766.812-2.125 0-3.375-1.296-1.234-1.313-1.234-3.672 0-2.453 1.25-3.797 1.265-1.344 3.265-1.344 1.938 0 3.156 1.328 1.235 1.313 1.235 3.703v.438h-7.219q.094 1.594.906 2.453.813.844 2.016.844.906 0 1.547-.47.64-.483 1.015-1.515zm-5.391-2.656h5.406q-.11-1.219-.625-1.828-.781-.953-2.031-.953-1.125 0-1.906.765-.766.75-.844 2.016zm9.125 5.766v-9.672h1.47v1.469q.562-1.032 1.03-1.36.485-.328 1.063-.328.828 0 1.687.531l-.562 1.516q-.61-.36-1.203-.36-.547 0-.969.329-.422.328-.61.89-.28.875-.28 1.922v5.063h-1.626zm11.912 0v-13.36h1.766v13.36h-1.766zm4.683 0v-9.672h1.47v1.375q1.062-1.594 3.077-1.594.875 0 1.61.313.734.312 1.093.828.375.5.516 1.203.094.453.094 1.594v5.953h-1.64v-5.891q0-1-.204-1.484-.187-.5-.672-.797-.484-.297-1.14-.297-1.047 0-1.813.672-.75.656-.75 2.515v5.282h-1.64zm13.954-1.47l.235 1.454q-.688.14-1.235.14-.89 0-1.39-.28-.485-.282-.688-.735-.203-.469-.203-1.937v-5.579h-1.203v-1.265h1.203v-2.39l1.625-.985v3.375h1.656v1.265h-1.656v5.672q0 .688.078.89.094.204.281.329.203.11.578.11.266 0 .72-.063zm8.23-1.64l1.688.203q-.406 1.485-1.484 2.313-1.079.812-2.766.812-2.125 0-3.375-1.296-1.234-1.313-1.234-3.672 0-2.453 1.25-3.797 1.265-1.344 3.265-1.344 1.938 0 3.156 1.328 1.235 1.313 1.235 3.703v.438h-7.219q.094 1.594.906 2.453.813.844 2.016.844.906 0 1.547-.47.64-.483 1.015-1.515zm-5.39-2.656h5.406q-.11-1.219-.625-1.828-.781-.953-2.031-.953-1.125 0-1.906.765-.766.75-.844 2.016zm9.126 5.766v-9.672h1.468v1.469q.563-1.032 1.032-1.36.484-.328 1.062-.328.828 0 1.688.531l-.563 1.516q-.61-.36-1.203-.36-.547 0-.969.329-.422.328-.61.89-.28.875-.28 1.922v5.063h-1.625zm6.618 0v-8.407h-1.453v-1.265h1.453v-1.031q0-.97.172-1.454.235-.64.828-1.03.594-.391 1.672-.391.688 0 1.532.156l-.25 1.437q-.5-.093-.954-.093-.75 0-1.062.328-.313.312-.313 1.187v.89h1.891v1.266h-1.89v8.407h-1.626zm11.106-1.188q-.922.766-1.766 1.094-.828.312-1.797.312-1.594 0-2.453-.78-.86-.782-.86-1.985 0-.719.329-1.297.328-.594.844-.938.53-.359 1.187-.546.469-.125 1.453-.25 1.985-.235 2.922-.563.016-.344.016-.422 0-1-.47-1.422-.624-.547-1.874-.547-1.156 0-1.703.407-.547.406-.813 1.422l-1.61-.22q.22-1.015.72-1.64.5-.64 1.453-.984.953-.344 2.187-.344 1.25 0 2.016.297.781.281 1.14.734.376.438.516 1.11.078.422.078 1.515v2.188q0 2.281.11 2.89.109.594.406 1.157h-1.703q-.266-.516-.328-1.188zm-.141-3.672q-.89.375-2.672.625-1.015.14-1.437.328-.422.188-.657.532-.218.343-.218.78 0 .657.5 1.095.5.437 1.453.437.937 0 1.672-.406.75-.422 1.093-1.14.266-.563.266-1.641v-.61zm10.516 1.313l1.61.219q-.266 1.656-1.36 2.609-1.078.937-2.672.937-1.984 0-3.187-1.296-1.203-1.297-1.203-3.72 0-1.577.515-2.75.516-1.171 1.579-1.75 1.062-.593 2.312-.593 1.578 0 2.578.797 1 .797 1.281 2.266l-1.593.234q-.235-.969-.813-1.453-.578-.5-1.39-.5-1.235 0-2.016.89-.781.891-.781 2.813 0 1.953.75 2.844.75.875 1.953.875.969 0 1.61-.594.655-.594.827-1.828zm9.64.437l1.688.203q-.406 1.485-1.484 2.313-1.078.812-2.766.812-2.125 0-3.375-1.296-1.234-1.313-1.234-3.672 0-2.453 1.25-3.797 1.266-1.344 3.266-1.344 1.937 0 3.156 1.328 1.234 1.313 1.234 3.703v.438h-7.218q.093 1.594.906 2.453.812.844 2.015.844.907 0 1.547-.47.64-.483 1.016-1.515zm-5.39-2.656h5.407q-.11-1.219-.625-1.828-.782-.953-2.032-.953-1.125 0-1.906.765-.766.75-.844 2.016zm24.06 1.078l1.765.453q-.563 2.172-2 3.328-1.438 1.141-3.531 1.141-2.157 0-3.516-.875-1.344-.89-2.062-2.547-.704-1.672-.704-3.594 0-2.078.797-3.625.797-1.562 2.266-2.359 1.484-.812 3.25-.812 2 0 3.36 1.015 1.374 1.016 1.906 2.875l-1.735.406q-.469-1.453-1.36-2.109-.874-.672-2.202-.672-1.547 0-2.578.735-1.032.734-1.454 1.984-.421 1.234-.421 2.562 0 1.704.5 2.97.5 1.265 1.546 1.905 1.047.625 2.266.625 1.484 0 2.516-.859 1.031-.86 1.39-2.547zm3.129-.156q0-2.688 1.484-3.969 1.25-1.078 3.047-1.078 2 0 3.265 1.313 1.266 1.296 1.266 3.609 0 1.86-.562 2.937-.563 1.063-1.641 1.657-1.063.593-2.328.593-2.031 0-3.281-1.296-1.25-1.313-1.25-3.766zm1.687 0q0 1.86.797 2.797.812.922 2.047.922 1.219 0 2.031-.922.813-.938.813-2.844 0-1.797-.813-2.719-.812-.922-2.031-.922-1.235 0-2.047.922-.797.907-.797 2.766zm9.298 4.844v-9.672h1.468v1.36q.454-.72 1.204-1.141.765-.438 1.718-.438 1.078 0 1.766.453.687.438.969 1.235 1.156-1.688 2.984-1.688 1.453 0 2.219.797.781.797.781 2.453v6.64h-1.64v-6.093q0-.984-.157-1.406-.156-.438-.578-.703-.422-.266-.984-.266-1.016 0-1.688.687-.672.672-.672 2.157v5.625h-1.64v-6.282q0-1.093-.407-1.64-.406-.547-1.312-.547-.688 0-1.281.36-.594.359-.86 1.062-.25.703-.25 2.031v5.016h-1.64zm15.54 3.703V93.167h1.485v1.25q.531-.735 1.187-1.094.672-.375 1.625-.375 1.235 0 2.172.64.953.626 1.438 1.798.484 1.156.484 2.546 0 1.485-.531 2.672-.531 1.188-1.547 1.828-1.016.625-2.14.625-.813 0-1.47-.343-.656-.344-1.062-.875v4.703h-1.64zm1.485-8.485q0 1.86.75 2.766.765.89 1.828.89 1.094 0 1.875-.921.781-.938.781-2.875 0-1.844-.765-2.766-.75-.922-1.813-.922-1.047 0-1.86.985-.796.968-.796 2.843zm8.282-.062q0-2.688 1.484-3.969 1.25-1.078 3.047-1.078 2 0 3.266 1.313 1.265 1.296 1.265 3.609 0 1.86-.562 2.937-.563 1.063-1.64 1.657-1.063.593-2.329.593-2.031 0-3.281-1.296-1.25-1.313-1.25-3.766zm1.687 0q0 1.86.797 2.797.813.922 2.047.922 1.219 0 2.031-.922.813-.938.813-2.844 0-1.797-.813-2.719-.812-.922-2.031-.922-1.234 0-2.047.922-.797.907-.797 2.766zm9.298 4.844v-9.672h1.469v1.375q1.062-1.594 3.078-1.594.875 0 1.61.313.734.312 1.093.828.375.5.516 1.203.093.453.093 1.594v5.953h-1.64v-5.891q0-1-.203-1.484-.188-.5-.672-.797-.485-.297-1.141-.297-1.047 0-1.812.672-.75.656-.75 2.515v5.282h-1.641zm17-3.11l1.688.203q-.406 1.485-1.484 2.313-1.078.812-2.766.812-2.125 0-3.375-1.296-1.234-1.313-1.234-3.672 0-2.453 1.25-3.797 1.265-1.344 3.265-1.344 1.938 0 3.157 1.328 1.234 1.313 1.234 3.703v.438h-7.219q.094 1.594.906 2.453.813.844 2.016.844.906 0 1.547-.47.64-.483 1.016-1.515zm-5.39-2.656h5.406q-.11-1.219-.625-1.828-.781-.953-2.031-.953-1.125 0-1.906.765-.766.75-.844 2.016zm9.141 5.766v-9.672h1.469v1.375q1.063-1.594 3.078-1.594.875 0 1.61.313.734.312 1.093.828.375.5.516 1.203.094.453.094 1.594v5.953h-1.641v-5.891q0-1-.203-1.484-.188-.5-.672-.797-.484-.297-1.14-.297-1.047 0-1.813.672-.75.656-.75 2.515v5.282h-1.64zm13.954-1.47l.235 1.454q-.688.14-1.235.14-.89 0-1.39-.28-.485-.282-.688-.735-.203-.469-.203-1.937v-5.579h-1.203v-1.265h1.203v-2.39l1.625-.985v3.375h1.656v1.265h-1.656v5.672q0 .688.078.89.094.204.281.329.203.11.578.11.266 0 .72-.063zm10.06 1.47V91.057h-4.405V89.48h10.578v1.578h-4.407v11.782h-1.765zm7.08 0v-9.672h1.468v1.469q.562-1.032 1.031-1.36.484-.328 1.063-.328.828 0 1.687.531l-.562 1.516q-.61-.36-1.204-.36-.546 0-.968.329-.422.328-.61.89-.28.875-.28 1.922v5.063h-1.626zm12.852-3.11l1.688.203q-.406 1.485-1.484 2.313-1.079.812-2.766.812-2.125 0-3.375-1.296-1.235-1.313-1.235-3.672 0-2.453 1.25-3.797 1.266-1.344 3.266-1.344 1.938 0 3.156 1.328 1.235 1.313 1.235 3.703v.438h-7.219q.094 1.594.906 2.453.813.844 2.016.844.906 0 1.547-.47.64-.483 1.015-1.515zm-5.39-2.656h5.406q-.11-1.219-.625-1.828-.781-.953-2.031-.953-1.125 0-1.907.765-.765.75-.843 2.016zm15.766 2.656l1.688.203q-.407 1.485-1.485 2.313-1.078.812-2.765.812-2.125 0-3.375-1.296-1.235-1.313-1.235-3.672 0-2.453 1.25-3.797 1.266-1.344 3.266-1.344 1.937 0 3.156 1.328 1.234 1.313 1.234 3.703v.438h-7.218q.093 1.594.906 2.453.812.844 2.016.844.906 0 1.546-.47.641-.483 1.016-1.515zm-5.39-2.656h5.406q-.11-1.219-.625-1.828-.782-.953-2.032-.953-1.125 0-1.906.765-.765.75-.844 2.016z"/></g></svg>