<?xml version="1.0" encoding="UTF-8" standalone="no"?>
<!-- Created with Inkscape (http://www.inkscape.org/) -->

<svg
   xmlns:dc="http://purl.org/dc/elements/1.1/"
   xmlns:cc="http://creativecommons.org/ns#"
   xmlns:rdf="http://www.w3.org/1999/02/22-rdf-syntax-ns#"
   xmlns:svg="http://www.w3.org/2000/svg"
   xmlns="http://www.w3.org/2000/svg"
   version="1.1"
   width="1182"
   height="1182"
   id="svg2">
  <defs
     id="defs4" />
  <metadata
     id="metadata7">
    <rdf:RDF>
      <cc:Work
         rdf:about="">
        <dc:format>image/svg+xml</dc:format>
        <dc:type
           rdf:resource="http://purl.org/dc/dcmitype/StillImage" />
        <dc:title></dc:title>
      </cc:Work>
    </rdf:RDF>
  </metadata>
  <g
     transform="translate(123.26509,18.709683)"
     id="g3098">
    <path
       d="M 0.28477871,1164.1247 C 67.904807,1142.9116 101.4672,1124.6061 122.80845,1100.1347 179.96957,976.96047 278.49355,818.78734 270.97083,722.90044 c -26.75569,-15.27867 -38.49248,-37.49849 -57.92327,-57.95282 -23.12521,-24.21638 -46.56112,-41.81709 -59.04962,-64.18276 -10.07482,-18.04299 -20.00432,-46.14837 -29.90499,-71.12749 -7.26168,-18.32103 -19.29138,-31.01153 -20.9899,-53.60269 -2.2823,-30.3556 16.57067,-36.26952 2.51051,-101.50035 1.83592,-16.85828 13.373,-17.91262 28.39812,-16.30603 16.95978,12.54552 31.28478,34.31279 42.7433,66.53327 -6.17476,-263.84099 -2.32784,-259.03363 -3.1443,-261.82068 -1.19705,-4.08621 3.92466,-56.54922 33.33503,-52.52794 11.26875,1.54078 17.73513,6.43942 22.82863,16.54499 -1.5525,-54.205821 24.23721,-55.941635 29.9951,-55.43586 5.78403,0.508072 21.11817,-2.596452 27.87202,33.54643 -0.9963,0.0924 29.74734,-24.96956 47.59362,0.79876 9.95706,22.50075 12.27779,48.2061 14.82706,75.65398 0,0 18.04179,-18.18844 34.67042,1.11761 19.69797,22.86961 28.15848,65.09246 28.74532,66.60367 8.6414,22.25304 16.61342,42.371 23.93561,60.78155 33.08589,83.18962 52.90369,131.51816 61.2566,184.4428 10.75885,68.16883 -1.52471,161.25603 -1.67898,160.3268 0,0 -28.37793,61.48552 -28.37793,137.16001 -12.57409,220.51291 -36.60043,322.30431 -55.98901,372.06621"
       id="path3806"
       style="fill:#f8c0c0;fill-opacity:1;stroke:#000000;stroke-width:3;stroke-linecap:butt;stroke-linejoin:miter;stroke-miterlimit:4;stroke-opacity:1;stroke-dasharray:none" />
    <path
       d="m 94.677306,1163.3255 c 6.660894,-19.5116 18.185684,-42.5992 28.846694,-65.4388"
       id="path3892"
       style="fill:#800000;fill-opacity:0.26755904;stroke:#000000;stroke-width:3;stroke-linecap:butt;stroke-linejoin:miter;stroke-miterlimit:4;stroke-opacity:1;stroke-dasharray:none" />
    <path
       d="m 287.01992,105.78499 c 1.05565,6.34518 1.83861,13.87465 2.25322,22.81071 0.98507,21.23109 1.03169,43.0791 6.03553,63.70945 6.41354,26.4424 9.01896,47.10069 9.12538,63.46505 0.15192,23.36218 5.4238,40.8431 6.21232,93.06874 7.18856,10.90442 24.51193,10.35583 32.14083,9.90613"
       id="path3812"
       style="fill:none;stroke:#000000;stroke-width:3;stroke-linecap:butt;stroke-linejoin:miter;stroke-miterlimit:4;stroke-opacity:1;stroke-dasharray:none" />
    <path
       d="m 262.50409,717.51463 c 30.30458,10.10153 53.53809,2.02031 53.53809,2.02031"
       id="path3808"
       style="fill:none;stroke:#000000;stroke-width:3;stroke-linecap:butt;stroke-linejoin:miter;stroke-miterlimit:4;stroke-opacity:1;stroke-dasharray:none" />
    <path
       d="m 203.91525,519.52475 c 19.68484,-1.06646 30.34555,4.35513 39.39595,10.10152"
       id="path3804"
       style="fill:none;stroke:#000000;stroke-width:3;stroke-linecap:butt;stroke-linejoin:miter;stroke-miterlimit:4;stroke-opacity:1;stroke-dasharray:none" />
    <path
       d="m 196.84418,501.342 0,0 c 10.02953,-9.47224 12.84822,-9.09138 24.24366,-9.09138"
       id="path3802"
       style="fill:none;stroke:#000000;stroke-width:3;stroke-linecap:butt;stroke-linejoin:miter;stroke-miterlimit:4;stroke-opacity:1;stroke-dasharray:none" />
    <path
       d="m 156.86882,482.75912 c 4.21582,-5.92365 10.61054,-9.66841 20.17331,-10.2451"
       id="path3800"
       style="fill:none;stroke:#000000;stroke-width:3;stroke-linecap:butt;stroke-linejoin:miter;stroke-miterlimit:4;stroke-opacity:1;stroke-dasharray:none" />
    <path
       d="m 349.73691,180.40364 c 1.27749,15.12404 2.52308,30.45425 5.16563,45.50177 0.13517,24.6245 11.76027,34.27477 18.71834,126.94416 6.30172,16.23385 17.71935,19.67794 29.29442,22.72843"
       id="path3828"
       style="fill:none;stroke:#000000;stroke-width:3;stroke-linecap:butt;stroke-linejoin:miter;stroke-miterlimit:4;stroke-opacity:1;stroke-dasharray:none" />
    <path
       d="m 228.70744,125.09279 c 4.39089,8.98592 5.88059,21.94562 7.53269,38.85825 3.28654,33.6445 9.49266,195.14108 12.62691,200.01021 0,0 15.15228,-3.53554 24.74873,-1.01016"
       id="path3820"
       style="fill:none;stroke:#000000;stroke-width:3;stroke-linecap:butt;stroke-linejoin:miter;stroke-miterlimit:4;stroke-opacity:1;stroke-dasharray:none" />
    <path
       d="m 176.86882,423.94259 c 1.4232,29.98861 1.42751,37.78853 0,51.42857 15.19061,16.96188 26.78142,34.64371 28.57143,54.28571"
       id="path3762"
       style="fill:none;stroke:#000000;stroke-width:3;stroke-linecap:butt;stroke-linejoin:miter;stroke-miterlimit:4;stroke-opacity:1;stroke-dasharray:none" />
    <path
       d="m 277.57195,464.65017 c 37.90288,22.29581 86.95366,46.82119 86.95366,46.82119"
       id="path3836"
       style="fill:none;stroke:#000000;stroke-width:3;stroke-linecap:butt;stroke-linejoin:miter;stroke-miterlimit:4;stroke-opacity:1;stroke-dasharray:none" />
    <path
       d="m 310.45827,432.32124 c 33.3408,33.10643 102.24344,36.89385 104.23291,36.2307"
       id="path3838"
       style="fill:none;stroke:#000000;stroke-width:3;stroke-linecap:butt;stroke-linejoin:miter;stroke-miterlimit:4;stroke-opacity:1;stroke-dasharray:none" />
    <path
       d="m 324.39316,507.5696 c 39.92569,45.45975 53.01694,71.88335 65.21523,112.03644"
       id="path3840"
       style="fill:none;stroke:#000000;stroke-width:3;stroke-linecap:butt;stroke-linejoin:miter;stroke-miterlimit:4;stroke-opacity:1;stroke-dasharray:none" />
    <path
       d="m 230.75076,295.75941 c -7.16584,0.1055 -14.76441,0.64373 -23.4106,2.22958"
       id="path3842"
       style="fill:none;stroke:#000000;stroke-width:3;stroke-linecap:butt;stroke-linejoin:miter;stroke-miterlimit:4;stroke-opacity:1;stroke-dasharray:none" />
    <path
       d="m 234.65252,276.80798 c -12.38689,1.30059 -19.74861,2.60117 -27.86976,3.90176"
       id="path3844"
       style="fill:none;stroke:#000000;stroke-width:3;stroke-linecap:butt;stroke-linejoin:miter;stroke-miterlimit:4;stroke-opacity:1;stroke-dasharray:none" />
    <path
       d="m 198.97923,212.15013 c 10.96211,-2.96264 21.92421,-2.58409 32.88632,-1.11479"
       id="path3846"
       style="fill:none;stroke:#000000;stroke-width:3;stroke-linecap:butt;stroke-linejoin:miter;stroke-miterlimit:4;stroke-opacity:1;stroke-dasharray:none" />
    <path
       d="m 261.96489,171.46027 c 11.4238,-1.90303 15.97605,-0.37029 21.73841,0.5574"
       id="path3848"
       style="fill:none;stroke:#000000;stroke-width:3;stroke-linecap:butt;stroke-linejoin:miter;stroke-miterlimit:4;stroke-opacity:1;stroke-dasharray:none" />
    <path
       d="m 264.75186,281.26714 c 12.4485,-5.56592 24.89699,-3.26697 37.34549,-3.34437"
       id="path3850"
       style="fill:none;stroke:#000000;stroke-width:3;stroke-linecap:butt;stroke-linejoin:miter;stroke-miterlimit:4;stroke-opacity:1;stroke-dasharray:none" />
    <path
       d="m 322.16357,203.7892 c 14.25852,-2.86789 19.83813,-3.42669 22.29581,-3.34437"
       id="path3852"
       style="fill:none;stroke:#000000;stroke-width:3;stroke-linecap:butt;stroke-linejoin:miter;stroke-miterlimit:4;stroke-opacity:1;stroke-dasharray:none" />
    <path
       d="m 324.95055,282.93932 c 13.30773,-6.10028 22.25824,-6.39091 31.21413,-6.68874"
       id="path3854"
       style="fill:none;stroke:#000000;stroke-width:3;stroke-linecap:butt;stroke-linejoin:miter;stroke-miterlimit:4;stroke-opacity:1;stroke-dasharray:none" />
    <path
       d="m 329.96711,291.30025 c 11.61475,-1.11479 19.55205,-2.22958 26.75497,-3.34437"
       id="path3856"
       style="fill:none;stroke:#000000;stroke-width:3;stroke-linecap:butt;stroke-linejoin:miter;stroke-miterlimit:4;stroke-opacity:1;stroke-dasharray:none" />
    <path
       d="m 431.41304,695.96918 c 12.26067,2.0377 23.78422,1.86406 34.5585,-0.55739"
       id="path3860"
       style="fill:none;stroke:#000000;stroke-width:3;stroke-linecap:butt;stroke-linejoin:miter;stroke-miterlimit:4;stroke-opacity:1;stroke-dasharray:none" />
  </g>
  <g
     transform="translate(123.26509,16.480103)"
     id="g3902">
    <path
       d="M 412.4375,0 336.28125,201.71875 175.65625,57.875 232.625,265.8125 18.125,243.84375 186.4375,378.59375 0,486.875 l 187.65625,8.78125 89.75,-87.1875 -119.5,-73.5 139.9375,-10.1875 -44.3125,-133.125 113.75,82.125 51.625,-130.46875 34.34375,136.0625 123.40625,-66.78125 -61.125,126.3125 135.28125,27.75 115.34375,-67 L 550.78125,289.5625 637.96875,92.34375 457.8125,210.78125 412.4375,0 z M 640.125,372.875 524.9375,424.53125 607.21875,528.25 748.03125,542.6875 579.71875,407.9375 640.125,372.875 z m -324.5625,112.8125 -101.875,15.0625 -85.5,193.4375 178.03125,-117.03125 9.34375,-91.46875 z m 161.5625,10.5 -3.53125,127.75 116.90625,104.71875 -56.96875,-207.9375 47.125,4.8125 L 477.125,496.1875 z m -82.6875,24.15625 -78.875,88.875 38.1875,177.3125 76.15625,-201.71875 21.15625,18.96875 -56.625,-83.4375 z"
       id="path3898"
       style="fill:#ffe700;fill-opacity:0.67003371;stroke:none" />
    <path
       d="m 418.90625,143.3125 -51.625,130.46875 -113.75,-82.125 44.3125,133.125 -139.9375,10.1875 119.5,73.5 -100.625,97.75 138.78125,-20.53125 -14.25,139.59375 93.125,-104.9375 17.875,26.34375 -27.84375,-69.875 -70.34375,51.0625 27.25,-82.5625 -86.71875,-6.09375 73.9375,-45.71875 -62.5,-60.40625 86.03125,12.5 -9.0625,-86.46875 57.875,64.875 46.28125,-68.53125 -28.3125,-112.15625 z m 157.75,69.28125 L 453.25,279.375 l -3.21875,-12.71875 2.1875,72.1875 L 525.75,317.8125 576.65625,212.59375 z m -59.96875,126.5625 -34.75,44.03125 67.78125,30.21875 103.25,-46.3125 -136.28125,-27.9375 z m 9.34375,86.75 -49.8125,10.34375 33.71875,69.25 102.1875,28.96875 -86.09375,-108.5625 z m -88.3125,47.3125 -20.25,81.0625 55.78125,82.15625 3.875,-140.25 6.96875,1.96875 -46.375,-24.9375 z"
       id="path3896"
       style="fill:#ffff00;fill-opacity:0.72053875;stroke:none" />
    <path
       d="m 276.46804,345.58504 -61.27468,40.64533 54.47253,49.39001 -73.06544,-8.25047 9.98109,72.84921 -50.66808,-53.28579 -39.18061,62.22145 -4.56255,-73.38809 -70.00927,22.47958 43.677841,-59.15129 -68.079812,-27.78073 71.480887,-17.23694 -34.295055,-65.04213 65.837229,32.74276 15.53674,-71.8696 29.38761,67.40177 58.09872,-45.06849 -20.81281,70.52274 z"
       transform="matrix(1.1233132,-0.36865121,0.36865121,1.1233132,97.819278,28.657287)"
       id="path3894"
       style="fill:#ffffff;fill-opacity:0.69023569;stroke:none" />
  </g>
  <g
     transform="translate(123.26509,16.480103)"
     id="g3067">
    <path
       d="M 935.18504,1167.277 C 887.2216,1089.4579 895.33992,1102.5137 895.33992,1102.5137 850.80467,984.40667 750.11557,811.45038 714.56787,683.05626 c 15.07259,-66.76688 63.32867,-114.14612 103.43078,-223.49974 17.31132,-47.20589 17.53767,-88.41843 23.33474,-133.66132 4.27308,-33.34901 5.28004,-58.84558 -13.56274,-58.32593 -60.42974,1.66655 -37.69477,111.0229 -89.57775,152.1158 C 699.02352,386.52296 704.17652,313.86079 689.29079,218.8983 685.66268,196.92375 681.99049,172.75759 678.33491,146.22056 666.09413,57.36081 646.55612,36.249606 624.64467,42.23055 c -23.95946,6.539967 -13.60409,81.7092 -7.17801,162.45832 17.55522,118.91232 -4.33611,141.14679 -15.73357,59.45931 0,0 -20.79746,-221.681464 -52.89279,-234.543116 -23.77531,-9.527547 -56.85227,-16.911431 -26.63264,139.510376 7.09967,36.74909 9.08627,50.32141 25.64189,149.08012 13.53754,80.75502 -47.72752,-197.32285 -52.05272,-215.30207 -3.90437,-16.229901 -41.95913,-55.329298 -50.02302,5.95048 -4.78706,47.47437 1.00516,62.21839 10.00292,101.21589 22.68871,98.33584 20.07921,128.58041 24.73907,182.49065 -27.96619,-92.11452 -42.85281,-150.56362 -57.31576,-188.60267 -5.94428,-15.63406 -44.92572,-15.52459 -40.66431,21.13469 2.07504,83.80049 43.27986,174.81494 45.88073,243.43621 1.20509,42.03459 24.65959,114.10124 46.75813,150.2885 38.01997,62.25925 47.35056,104.67637 53.44054,151.36013 19.96029,153.00908 9.25949,240.29663 48.69611,395.58233"
       id="path3796"
       style="fill:#ac5f14;fill-opacity:1;stroke:#000000;stroke-width:3;stroke-linecap:butt;stroke-linejoin:miter;stroke-miterlimit:4;stroke-opacity:1;stroke-dasharray:none" />
    <path
       d="m 468.48716,423.25161 c 3.81551,11.86011 5.19871,16.97983 4.93822,30.69276"
       id="path3862"
       style="fill:none;stroke:#000000;stroke-width:3;stroke-linecap:butt;stroke-linejoin:miter;stroke-miterlimit:4;stroke-opacity:1;stroke-dasharray:none" />
    <path
       d="m 545.78001,416.00761 3.49997,34.99391"
       id="path3864"
       style="fill:none;stroke:#000000;stroke-width:3;stroke-linecap:butt;stroke-linejoin:miter;stroke-miterlimit:4;stroke-opacity:1;stroke-dasharray:none" />
    <path
       d="m 618.74401,394.02282 3.33532,36.99014"
       id="path3866"
       style="fill:none;stroke:#000000;stroke-width:3;stroke-linecap:butt;stroke-linejoin:miter;stroke-miterlimit:4;stroke-opacity:1;stroke-dasharray:none" />
    <path
       d="m 688.05817,395.53398 c -0.0443,11.8976 9.01412,21.88479 0.96608,36.45031"
       id="path3868"
       style="fill:none;stroke:#000000;stroke-width:3;stroke-linecap:butt;stroke-linejoin:miter;stroke-miterlimit:4;stroke-opacity:1;stroke-dasharray:none" />
    <path
       d="M 764.50246,445.37413 738.1929,419.68507"
       id="path3870"
       style="fill:none;stroke:#000000;stroke-width:3;stroke-linecap:butt;stroke-linejoin:miter;stroke-miterlimit:4;stroke-opacity:1;stroke-dasharray:none" />
    <path
       d="m 556.36572,243.6577 20.22766,-3.30056"
       id="path3872"
       style="fill:none;stroke:#000000;stroke-width:3;stroke-linecap:butt;stroke-linejoin:miter;stroke-miterlimit:4;stroke-opacity:1;stroke-dasharray:none" />
    <path
       d="m 555.4824,233.72591 19.42192,-6.73252"
       id="path3874"
       style="fill:none;stroke:#000000;stroke-width:3;stroke-linecap:butt;stroke-linejoin:miter;stroke-miterlimit:4;stroke-opacity:1;stroke-dasharray:none" />
    <path
       d="m 644.56714,212.53922 c 6.84858,2.51443 19.58401,1.08998 26.14554,-0.073"
       id="path3876"
       style="fill:none;stroke:#000000;stroke-width:3;stroke-linecap:butt;stroke-linejoin:miter;stroke-miterlimit:4;stroke-opacity:1;stroke-dasharray:none" />
    <path
       d="m 655.39192,222.40018 c 6.94731,1.97889 10.56073,1.33883 16.20406,-0.002"
       id="path3878"
       style="fill:none;stroke:#000000;stroke-width:3;stroke-linecap:butt;stroke-linejoin:miter;stroke-miterlimit:4;stroke-opacity:1;stroke-dasharray:none" />
    <path
       d="m 639.85973,138.50594 c 5.12231,-0.8162 10.25717,-1.68526 15.49904,-3.00513"
       id="path3880"
       style="fill:none;stroke:#000000;stroke-width:3;stroke-linecap:butt;stroke-linejoin:miter;stroke-miterlimit:4;stroke-opacity:1;stroke-dasharray:none" />
    <path
       d="m 542.7757,130.24789 c 5.37839,1.00699 11.6676,-1.06966 15.26178,-2.85889"
       id="path3882"
       style="fill:none;stroke:#000000;stroke-width:3;stroke-linecap:butt;stroke-linejoin:miter;stroke-miterlimit:4;stroke-opacity:1;stroke-dasharray:none" />
    <path
       d="m 509.84844,262.99805 c -6.01545,0.95416 -12.83217,3.77245 -18.25207,8.63053"
       id="path3884"
       style="fill:none;stroke:#000000;stroke-width:3;stroke-linecap:butt;stroke-linejoin:miter;stroke-miterlimit:4;stroke-opacity:1;stroke-dasharray:none" />
    <path
       d="m 441.10531,326.48368 -15.98995,5.92677"
       id="path3886"
       style="fill:none;stroke:#000000;stroke-width:3;stroke-linecap:butt;stroke-linejoin:miter;stroke-miterlimit:4;stroke-opacity:1;stroke-dasharray:none" />
    <path
       d="m 702.19512,639.61061 c 5.2252,26.86076 8.7667,34.79035 12.37275,43.44565"
       id="path3888"
       style="fill:none;stroke:#000000;stroke-width:3;stroke-linecap:butt;stroke-linejoin:miter;stroke-miterlimit:4;stroke-opacity:1;stroke-dasharray:none" />
    <path
       d="m 559.87064,44.836201 c 1.28376,3.463482 -1.31161,35.234838 -16.84716,38.394419 -20.43527,4.156074 -28.8056,-9.85584 -29.45858,-32.771938 13.71233,-34.092743 29.98403,-20.325294 46.30574,-5.622481 z"
       id="path3900"
       style="fill:#f08776;fill-opacity:0.37373735;stroke:#000000;stroke-width:2;stroke-linecap:butt;stroke-linejoin:miter;stroke-miterlimit:4;stroke-opacity:1;stroke-dasharray:none" />
    <path
       d="m 656.80971,62.161933 c -1.95391,7.375783 -3.17216,26.294005 -18.78602,28.722925 -10.6667,1.659334 -23.85381,-8.924349 -25.99363,-25.647801 16.59323,-32.32822 30.60976,-16.261554 44.77965,-3.075124 z"
       id="path3902"
       style="fill:#f08776;fill-opacity:0.37373735;stroke:#000000;stroke-width:2;stroke-linecap:butt;stroke-linejoin:miter;stroke-miterlimit:4;stroke-opacity:1;stroke-dasharray:none" />
    <path
       d="m 491.41994,100.91512 c 0.11664,2.21004 -3.33126,19.14586 -15.44208,22.04558 -17.94914,4.2976 -23.14932,-4.16526 -27.59123,-16.93534 13.30147,-42.668024 30.74154,-23.846678 43.03331,-5.11024 z"
       id="path3904"
       style="fill:#f08776;fill-opacity:0.37373735;stroke:#000000;stroke-width:2;stroke-linecap:butt;stroke-linejoin:miter;stroke-miterlimit:4;stroke-opacity:1;stroke-dasharray:none" />
    <path
       d="m 404.5889,196.89678 c 13.85125,0.60259 18.963,17.5562 21.45546,25.97964 -2.84057,10.38877 -10.23952,17.45771 -15.58608,17.40167 -15.83996,-0.16602 -20.9713,-10.50298 -20.9713,-10.50298 0,0 -3.0056,-30.72444 15.10192,-32.87833 z"
       id="path3906"
       style="fill:#f08776;fill-opacity:0.37373735;stroke:#000000;stroke-width:2;stroke-linecap:butt;stroke-linejoin:miter;stroke-miterlimit:4;stroke-opacity:1;stroke-dasharray:none" />
    <path
       d="m 820.31003,283.49188 c 3.29488,-6.41933 4.46329,-8.37296 7.57635,-11.37741 3.46243,-0.24301 7.60264,1.25154 8.60736,3.73057 5.92117,14.60965 3.72685,29.14748 1.43012,47.01736 -0.45774,3.56153 -6.43129,1.73988 -9.65026,-2.47813 -3.95846,-5.18701 -5.57221,-18.39843 -7.96357,-36.89239 z"
       id="path3908"
       style="fill:#f08776;fill-opacity:0.37373735;stroke:#000000;stroke-width:2;stroke-linecap:butt;stroke-linejoin:miter;stroke-miterlimit:4;stroke-opacity:1;stroke-dasharray:none" />
    <path
       d="m 475.11696,173.92204 c 3.98773,0.21233 10.66985,-2.05855 13.2707,-3.64912"
       id="path3882-0"
       style="fill:none;stroke:#000000;stroke-width:3;stroke-linecap:butt;stroke-linejoin:miter;stroke-miterlimit:4;stroke-opacity:1;stroke-dasharray:none" />
  </g>
</svg>
